<?xml version="1.0" encoding="UTF-8" standalone="no"?>
<!-- Created with Inkscape (http://www.inkscape.org/) -->

<svg
   version="1.1"
   id="svg2"
   width="2829.3333"
   height="2829.3333"
   viewBox="0 0 2829.3333 2829.3333"
   sodipodi:docname="vecteezy_man-in-worksite_.eps"
   xmlns:inkscape="http://www.inkscape.org/namespaces/inkscape"
   xmlns:sodipodi="http://sodipodi.sourceforge.net/DTD/sodipodi-0.dtd"
   xmlns="http://www.w3.org/2000/svg"
   xmlns:svg="http://www.w3.org/2000/svg">
  <defs
     id="defs6" />
  <sodipodi:namedview
     id="namedview4"
     pagecolor="#ffffff"
     bordercolor="#000000"
     borderopacity="0.25"
     inkscape:showpageshadow="2"
     inkscape:pageopacity="0.0"
     inkscape:pagecheckerboard="0"
     inkscape:deskcolor="#d1d1d1" />
  <g
     id="g8"
     inkscape:groupmode="layer"
     inkscape:label="ink_ext_XXXXXX"
     transform="matrix(1.3333333,0,0,-1.3333333,0,2829.3333)">
    <g
       id="g10"
       transform="scale(0.1)">
      <path
         d="m 13786.6,8446.4 h 757 l -31.2,315.8 c -11.7,-13.5 -23.6,-26.6 -35.8,-38.8 -166.4,-165 -415.3,-241.5 -690,-277"
         style="fill:#58356a;fill-opacity:1;fill-rule:nonzero;stroke:none"
         id="path12" />
      <path
         d="m 15020.7,8740.9 c 93.8,94.4 160.3,205.2 203.4,326.9 h -338.4 l 40.4,-409.4 c 33,25.9 65,52.8 94.6,82.5"
         style="fill:#58356a;fill-opacity:1;fill-rule:nonzero;stroke:none"
         id="path14" />
      <path
         d="m 15321.3,10856.8 h -294.7 c -4.1,-112.8 -9.3,-233.9 -15.8,-356.5 -2,-86.2 -4.7,-165.5 -10.5,-234.1 -0.3,-4.1 -2.1,-7.6 -4.3,-10.8 -23.2,-336.8 -57.7,-647.3 -108.9,-782.2 h 407.4 c 9.3,148.7 8.5,298.2 15.2,446.9 13.7,312.1 10.8,624.4 11.6,936.7"
         style="fill:#58356a;fill-opacity:1;fill-rule:nonzero;stroke:none"
         id="path16" />
      <path
         d="m 9967.27,8331.2 c -68.13,-15.1 -148.13,-28.5 -226.41,-47.2 -93.2,-22 -182.15,-52.5 -238.98,-99.7 -37.93,-31.6 -61.96,-68.8 -68.21,-118.7 -26.01,-212.4 -39.26,-425.7 -51.64,-639.5 h 1048.57 c -0.2,60 -0.5,120.7 -0.5,182.5 0.1,247 5,505 41.2,753.9 -183.6,-6.5 -354.9,-15.4 -504.03,-31.3"
         style="fill:#694182;fill-opacity:1;fill-rule:nonzero;stroke:none"
         id="path18" />
      <path
         d="m 10476,7741.2 c 0.8,77.6 2.6,155.6 6,233.8 -1.1,-38.7 -2.2,-77.8 -3.2,-117.3 -0.9,-36.3 -1.8,-75.7 -2.8,-116.5"
         style="fill:#694182;fill-opacity:1;fill-rule:nonzero;stroke:none"
         id="path20" />
      <path
         d="m 13786.6,8446.4 c -695.6,-89.8 -1557.1,84.3 -1666.2,-243.2 -31.3,-94 -3.7,-373 -13.8,-777.1 h 150.5 220.2 2167 l -100.7,1020.3 h -757"
         style="fill:#694182;fill-opacity:1;fill-rule:nonzero;stroke:none"
         id="path22" />
      <path
         d="m 15796.9,11333.9 c -39.9,-30.3 -84.3,-30.8 -84.3,-30.8 h 139.6 c 1.4,13 2.7,26 4.1,39 -19.9,-3.2 -39.6,-5.6 -59.4,-8.2"
         style="fill:#694182;fill-opacity:1;fill-rule:nonzero;stroke:none"
         id="path24" />
      <path
         d="m 15020.7,8740.9 c -29.6,-29.7 -61.6,-56.6 -94.6,-82.5 l 21,-212 100.7,-1020.3 h 199.4 c 188.4,0 341.2,152.8 341.2,341.2 69.5,337.4 59.6,913.4 71,1300.5 h -435.3 c -43.1,-121.7 -109.6,-232.5 -203.4,-326.9"
         style="fill:#694182;fill-opacity:1;fill-rule:nonzero;stroke:none"
         id="path26" />
      <path
         d="m 15309.7,9920.1 c -6.7,-148.7 -5.9,-298.2 -15.2,-446.9 h 388.5 c 32.2,461.8 75.4,922.9 122.7,1383.6 h -484.4 c -0.8,-312.3 2.1,-624.6 -11.6,-936.7"
         style="fill:#694182;fill-opacity:1;fill-rule:nonzero;stroke:none"
         id="path28" />
      <path
         d="m 12257.1,3591 h 220.2 v 3835.1 h -220.2 V 3591"
         style="fill:#7695c0;fill-opacity:1;fill-rule:nonzero;stroke:none"
         id="path30" />
      <path
         d="M 12036.9,6627.1 V 3591 h 220.2 v 3835.1 h -150.5 c -5.5,-217.5 -21.6,-470.5 -64.3,-751.7 l -5.4,-47.3"
         style="fill:#6880b6;fill-opacity:1;fill-rule:nonzero;stroke:none"
         id="path32" />
      <path
         d="m 12482.6,3591 h -5.3 l 1913.5,-597.4 z"
         style="fill:#7695c0;fill-opacity:1;fill-rule:nonzero;stroke:none"
         id="path34" />
      <path
         d="m 12257.1,3591 -634.3,-541.2 1.1,-8.4 c 14.4,-54 9.9,-110.8 9.9,-110.8 -68.7,-16.9 -136.7,-31.9 -203.7,-45.2 l -54.6,-46.5 h 862.4 38.4 2341.2 c -17,130 -226.7,154.7 -226.7,154.7 l -2169.4,364.1 255.9,233.3 h -201 -19.2"
         style="fill:#7695c0;fill-opacity:1;fill-rule:nonzero;stroke:none"
         id="path36" />
      <path
         d="m 11609.6,3038.6 -0.1,-0.2 c 9.2,1.9 14.4,3 14.4,3 0,0 -2.7,-0.5 -6.6,-1.3 -2.1,-0.4 -4.4,-0.9 -7.7,-1.5"
         style="fill:#7695c0;fill-opacity:1;fill-rule:nonzero;stroke:none"
         id="path38" />
      <path
         d="m 11155.7,2838.9 h 219.8 l 54.6,46.5 c -93.5,-18.6 -185,-33.9 -274.4,-46.5"
         style="fill:#6880b6;fill-opacity:1;fill-rule:nonzero;stroke:none"
         id="path40" />
      <path
         d="m 12036.9,3591 h -5.3 l -459.2,-143.7 50.4,-397.5 634.3,541.2 h -19.2 -201"
         style="fill:#6880b6;fill-opacity:1;fill-rule:nonzero;stroke:none"
         id="path42" />
      <path
         d="m 9927.58,2905.3 c -0.28,-0.3 -0.55,-0.6 -0.74,-0.8 608.16,-80.5 1556.36,107.9 1682.66,133.9 l 0.1,0.2 c -127,-25.4 -1082.6,-209.2 -1682.02,-133.3"
         style="fill:#6880b6;fill-opacity:1;fill-rule:nonzero;stroke:none"
         id="path44" />
      <path
         d="M 14390.8,2993.6 12477.3,3591 12221.4,3357.7 Z"
         style="fill:#93b0e1;fill-opacity:1;fill-rule:nonzero;stroke:none"
         id="path46" />
      <path
         d="m 10739,3695.5 c -5.6,-6.1 -11.3,-12.1 -17,-17.6 5.7,5.5 11.4,11.5 17,17.6"
         style="fill:#ec8675;fill-opacity:1;fill-rule:nonzero;stroke:none"
         id="path48" />
      <path
         d="m 10778,3741.6 c 4,5.1 8,10.3 12,15.6 -4,-5.3 -8,-10.5 -12,-15.6"
         style="fill:#ec8675;fill-opacity:1;fill-rule:nonzero;stroke:none"
         id="path50" />
      <path
         d="m 10809.1,3783.6 c -2.8,-3.9 -5.5,-7.9 -8.3,-11.7 2.8,3.8 5.6,7.8 8.4,11.7 h -0.1"
         style="fill:#ec8675;fill-opacity:1;fill-rule:nonzero;stroke:none"
         id="path52" />
      <path
         d="m 10985.8,3726.9 c 12.7,-34.6 21.5,-74.8 31.7,-97.2 22.3,-49.6 107.7,-81.7 156.1,-87.7 129.6,-16 260,16.7 377.4,74.6 l 0.2,-1.8 -6.1,76.3 c -222.3,-21.8 -408.9,-1.6 -559.3,35.8"
         style="fill:#ec8675;fill-opacity:1;fill-rule:nonzero;stroke:none"
         id="path54" />
      <path
         d="m 10697.4,3655.5 c 5.4,4.5 10.8,9.2 16.2,14.3 -5.4,-5 -10.8,-9.8 -16.2,-14.3"
         style="fill:#ec8675;fill-opacity:1;fill-rule:nonzero;stroke:none"
         id="path56" />
      <path
         d="m 10749.6,3707.3 c 5.8,6.6 11.6,13.3 17.4,20.4 -5.8,-7.1 -11.6,-13.8 -17.4,-20.4"
         style="fill:#ec8675;fill-opacity:1;fill-rule:nonzero;stroke:none"
         id="path58" />
      <path
         d="m 10689.9,3649.3 c -6.9,-5.4 -13.8,-10.3 -20.7,-14.6 0,0 0,0 0.1,0 6.8,4.3 13.7,9.2 20.6,14.6"
         style="fill:#ec8675;fill-opacity:1;fill-rule:nonzero;stroke:none"
         id="path60" />
      <path
         d="m 11623.9,3041.4 c 0,0 -2.6,-0.5 -6.6,-1.3 3.9,0.8 6.6,1.3 6.6,1.3"
         style="fill:#232831;fill-opacity:1;fill-rule:nonzero;stroke:none"
         id="path62" />
      <path
         d="m 9653.01,2970.2 c 16.37,-6.6 33.59,-12.5 51.25,-18.3 3.51,-1.1 6.83,-2.1 10.43,-3.2 7.81,-2.5 16.09,-4.6 24.18,-6.8 13.2,-3.7 26.36,-7.4 40.23,-10.8 0.51,0 1.02,-0.2 1.53,-0.2 45.7,-10.7 95.15,-19 146.95,-25.6 599.42,-75.9 1555.02,107.9 1682.02,133.3 3.3,0.6 5.6,1.1 7.7,1.5 4,0.8 6.6,1.3 6.6,1.3 l -1.1,8.4 -50.4,397.5 -21.2,167.5 -0.2,1.8 c -117.4,-57.9 -247.8,-90.6 -377.4,-74.6 -48.4,6 -133.8,38.1 -156.1,87.7 -10.2,22.4 -19,62.6 -31.7,97.2 -65.8,16.4 -124.7,36 -176.6,56.7 -2.8,-3.9 -5.6,-7.9 -8.4,-11.7 -3.6,-5 -7.2,-9.9 -10.8,-14.7 -4,-5.3 -8,-10.5 -12,-15.6 -3.7,-4.6 -7.3,-9.4 -11,-13.9 -5.8,-7.1 -11.6,-13.8 -17.4,-20.4 -3.5,-4.1 -7,-7.9 -10.6,-11.8 -5.6,-6.1 -11.3,-12.1 -17,-17.6 -2.8,-2.9 -5.6,-5.5 -8.4,-8.1 -5.4,-5.1 -10.8,-9.8 -16.2,-14.3 -2.6,-2.1 -5,-4.2 -7.5,-6.2 -6.9,-5.4 -13.8,-10.3 -20.6,-14.6 50.1,-22.4 142.3,-86.3 177.7,-262 3,-15.2 -6.3,-30 -21,-34 l -2.1,-0.6 c -16,-3.1 -31.4,7.2 -34.6,23.1 -40,199.1 -158.2,225.9 -164.2,227.1 -8.9,1.7 -15.7,7.4 -19.8,14.7 -22.4,-9.3 -47.7,-18.5 -75,-27.4 42.6,-29.4 110.2,-97.5 127.6,-239.9 1.8,-14.4 -7.4,-27.7 -21,-31.5 l -4.2,-0.7 c -15.9,-2 -30.5,9.3 -32.3,25.3 -20.9,170.1 -121.1,210.1 -125.5,211.9 -6.8,2.4 -11.9,7.5 -15.2,13.5 -21.3,-6.1 -43.3,-12 -65.8,-17.8 39.7,-31.2 105.7,-104.6 124.4,-256.6 1.9,-15.1 -7.9,-29.1 -22.4,-33.1 l -4.3,-0.7 c -16.6,-2.2 -31.7,9.6 -33.7,26.5 -22,179.5 -115.1,225.9 -119.7,228.2 -8,3.6 -13.4,10.3 -16,18 -30.6,-7.3 -61.4,-14.2 -91.5,-20.7 42.3,-20 118.3,-77.1 137.6,-234.1 1.9,-14.7 -7.6,-28.4 -21.6,-32.1 l -4.2,-1 c -16.2,-2 -31,9.6 -33,25.8 -20.9,169.6 -113.8,192.5 -118.6,193.4 -15.8,3.3 -26.3,18.6 -23.4,34.6 0,0 0,0.1 0.1,0.2 -43.5,-8.9 -83.9,-16.7 -119.4,-23.3 35.2,-13.4 117,-61.2 136.1,-218.4 1.7,-13.7 -7.2,-26.1 -19.8,-29.7 l -4,-0.5 c -14.7,-2 -28.2,8.6 -30,23.4 -19.2,155.3 -104.2,175.8 -108.5,176.9 -14.5,2.8 -24.15,16.8 -21.5,31.5 0.6,3.2 2,6.1 3.6,8.8 -53.01,-9.5 -86.52,-14.9 -86.52,-14.9 l -573.67,-113.1 c 0,0 -0.2,-0.3 -0.47,-0.5 -8.52,-10.4 -136.64,-176.6 309.57,-354.8"
         style="fill:#261f40;fill-opacity:1;fill-rule:nonzero;stroke:none"
         id="path64" />
      <path
         d="m 11633.8,2930.6 c 0,0 4.5,56.8 -9.9,110.8 0,0 -5.2,-1.1 -14.4,-3 -126.3,-26 -1074.5,-214.4 -1682.66,-133.9 -51.41,6.8 -100.43,15.5 -146.21,26.4 -0.51,0 -1.02,0.2 -1.53,0.2 -13.79,3.4 -27.03,7.1 -40.23,10.8 -8.09,2.2 -16.37,4.3 -24.18,6.8 -3.48,1.1 -6.99,2.1 -10.43,3.2 -17.66,5.8 -34.88,11.7 -51.25,18.3 -446.21,178.2 -318.09,344.4 -309.57,354.8 0.31,0.3 0.47,0.5 0.47,0.5 0,0 -264.81,-283.7 282.22,-468.6 0,0 653.37,-142.3 1529.57,-18 89.4,12.6 180.9,27.9 274.4,46.5 67,13.3 135,28.3 203.7,45.2"
         style="fill:#fbc8b6;fill-opacity:1;fill-rule:nonzero;stroke:none"
         id="path66" />
      <path
         d="m 10625.1,3588.3 c 6,-1.2 124.2,-28 164.2,-227.1 3.2,-15.9 18.6,-26.2 34.6,-23.1 l 2.1,0.6 c 14.7,4 24,18.8 21,34 -35.4,175.7 -127.6,239.6 -177.7,262 -0.1,0 -0.1,0 -0.1,0 -18.6,8.3 -31.5,11 -33.3,11.4 -16,2.7 -31.3,-7.7 -34.2,-23.8 -1.3,-7 0.4,-13.6 3.6,-19.3 4.1,-7.3 10.9,-13 19.8,-14.7"
         style="fill:#ffffff;fill-opacity:1;fill-rule:nonzero;stroke:none"
         id="path68" />
      <path
         d="m 10474.9,3540.7 c 4.4,-1.8 104.6,-41.8 125.5,-211.9 1.8,-16 16.4,-27.3 32.3,-25.3 l 4.2,0.7 c 13.6,3.8 22.8,17.1 21,31.5 -17.4,142.4 -85,210.5 -127.6,239.9 -19.5,13.5 -33.8,18.9 -35.6,19.5 -15,5.5 -31.5,-2.4 -37,-17.4 -2.9,-8.1 -1.8,-16.5 2,-23.5 3.3,-6 8.4,-11.1 15.2,-13.5"
         style="fill:#ffffff;fill-opacity:1;fill-rule:nonzero;stroke:none"
         id="path70" />
      <path
         d="m 10338.2,3500.7 c 4.6,-2.3 97.7,-48.7 119.7,-228.2 2,-16.9 17.1,-28.7 33.7,-26.5 l 4.3,0.7 c 14.5,4 24.3,18 22.4,33.1 -18.7,152 -84.7,225.4 -124.4,256.6 -16.8,13.3 -29,19.1 -30.6,19.8 -15.3,7 -33.3,0 -40.4,-15.2 -3.1,-7.4 -3.1,-15.3 -0.7,-22.3 2.6,-7.7 8,-14.4 16,-18"
         style="fill:#ffffff;fill-opacity:1;fill-rule:nonzero;stroke:none"
         id="path72" />
      <path
         d="m 10190.9,3450 c 4.8,-0.9 97.7,-23.8 118.6,-193.4 2,-16.2 16.8,-27.8 33,-25.8 l 4.2,1 c 14,3.7 23.5,17.4 21.6,32.1 -19.3,157 -95.3,214.1 -137.6,234.1 -15.7,7.6 -26.9,10 -28.5,10.3 -16,3.1 -31.4,-7.6 -34.6,-23.5 -0.1,-0.1 -0.1,-0.2 -0.1,-0.2 -2.9,-16 7.6,-31.3 23.4,-34.6"
         style="fill:#ffffff;fill-opacity:1;fill-rule:nonzero;stroke:none"
         id="path74" />
      <path
         d="m 10022,3413.2 c 4.3,-1.1 89.3,-21.6 108.5,-176.9 1.8,-14.8 15.3,-25.4 30,-23.4 l 4,0.5 c 12.6,3.6 21.5,16 19.8,29.7 -19.1,157.2 -100.9,205 -136.1,218.4 -8.9,3.4 -15,4.8 -16.1,5 -11.4,2.1 -22.3,-3.6 -28,-13 -1.6,-2.7 -3,-5.6 -3.6,-8.8 -2.65,-14.7 7,-28.7 21.5,-31.5"
         style="fill:#ffffff;fill-opacity:1;fill-rule:nonzero;stroke:none"
         id="path76" />
      <path
         d="m 8037.93,3772.7 c 4.18,5.8 8.4,11.8 12.54,17.7 -4.14,-5.9 -8.36,-11.9 -12.54,-17.7"
         style="fill:#ec8675;fill-opacity:1;fill-rule:nonzero;stroke:none"
         id="path78" />
      <path
         d="m 8015.39,3742.7 c 3.44,4.5 6.91,8.9 10.35,13.5 -3.44,-4.6 -6.91,-9 -10.35,-13.5"
         style="fill:#ec8675;fill-opacity:1;fill-rule:nonzero;stroke:none"
         id="path80" />
      <path
         d="m 7974.65,3694.6 c -5.31,-5.7 -10.59,-11.4 -15.9,-16.6 5.31,5.2 10.59,10.9 15.9,16.6"
         style="fill:#ec8675;fill-opacity:1;fill-rule:nonzero;stroke:none"
         id="path82" />
      <path
         d="m 7934.14,3655.7 c 5.24,4.4 10.43,9 15.7,13.9 -5.27,-4.9 -10.46,-9.5 -15.7,-13.9"
         style="fill:#ec8675;fill-opacity:1;fill-rule:nonzero;stroke:none"
         id="path84" />
      <path
         d="m 7988.52,3710 c 4.88,5.7 9.76,11.3 14.61,17.3 -4.85,-6 -9.73,-11.6 -14.61,-17.3"
         style="fill:#ec8675;fill-opacity:1;fill-rule:nonzero;stroke:none"
         id="path86" />
      <path
         d="m 8059.34,3803 0.04,0.2 c 39.02,-3 78.08,-4.8 116.36,-14.2 45,-10.7 59.1,-117.1 78.32,-159.3 22.23,-49.6 107.58,-81.7 156.1,-87.7 129.53,-16 259.92,16.7 377.34,74.6 l 0.16,-1.2 -15.08,187.3 c -275.7,7.8 -496.68,50.1 -654.38,93.9 -18.67,-31.7 -38.36,-63.4 -58.86,-93.6"
         style="fill:#ec8675;fill-opacity:1;fill-rule:nonzero;stroke:none"
         id="path88" />
      <path
         d="m 7926.37,3649.3 c -6.92,-5.5 -13.75,-10.3 -20.59,-14.6 v 0 c 6.84,4.3 13.71,9.1 20.59,14.6"
         style="fill:#ec8675;fill-opacity:1;fill-rule:nonzero;stroke:none"
         id="path90" />
      <path
         d="m 8860.35,3041.4 c 0,0 -2.46,-0.5 -6.09,-1.2 3.59,0.7 6.09,1.2 6.09,1.2"
         style="fill:#232831;fill-opacity:1;fill-rule:nonzero;stroke:none"
         id="path92" />
      <path
         d="m 8410.16,3542 c -48.52,6 -133.87,38.1 -156.1,87.7 -19.22,42.2 -33.32,148.6 -78.32,159.3 -38.28,9.4 -77.34,11.2 -116.36,14.2 l -0.04,-0.2 c -2.93,-4.3 -5.9,-8.4 -8.87,-12.6 -4.14,-5.9 -8.36,-11.9 -12.54,-17.7 -4.02,-5.6 -8.13,-11.1 -12.19,-16.5 -3.44,-4.6 -6.91,-9 -10.35,-13.5 -4.06,-5.2 -8.16,-10.4 -12.26,-15.4 -4.85,-6 -9.73,-11.6 -14.61,-17.3 -4.61,-5.3 -9.26,-10.4 -13.87,-15.4 -5.31,-5.7 -10.59,-11.4 -15.9,-16.6 -2.97,-2.9 -5.94,-5.7 -8.91,-8.4 -5.27,-4.9 -10.46,-9.5 -15.7,-13.9 -2.58,-2.2 -5.19,-4.4 -7.77,-6.4 -6.88,-5.5 -13.75,-10.3 -20.59,-14.6 50.16,-22.4 142.42,-86.3 177.66,-262 3.12,-15.2 -6.25,-30 -20.94,-34 l -2.15,-0.6 c -15.9,-3.1 -31.29,7.2 -34.49,23.1 -40.08,199.1 -158.24,225.9 -164.26,227.1 -8.83,1.7 -15.62,7.3 -19.72,14.6 -22.5,-9.2 -47.74,-18.4 -75.04,-27.3 42.57,-29.4 110.23,-97.5 127.61,-239.9 1.8,-14.4 -7.34,-27.7 -21.09,-31.5 l -4.1,-0.7 c -15.98,-2 -30.51,9.3 -32.38,25.3 -20.83,170.1 -121.1,210.1 -125.4,211.9 -6.83,2.4 -11.95,7.5 -15.19,13.5 -21.41,-6.1 -43.4,-12 -65.74,-17.8 39.65,-31.2 105.62,-104.6 124.25,-256.6 1.88,-15.1 -7.92,-29.1 -22.34,-33.1 l -4.3,-0.7 c -16.6,-2.2 -31.75,9.6 -33.82,26.5 -21.92,179.5 -115,225.9 -119.61,228.2 -8.01,3.6 -13.44,10.3 -16.02,18 -30.7,-7.3 -61.37,-14.2 -91.44,-20.7 42.22,-20 118.28,-77.1 137.57,-234.1 1.92,-14.7 -7.65,-28.4 -21.64,-32.1 l -4.22,-1 c -16.28,-2 -30.89,9.6 -32.96,25.8 -20.9,169.6 -113.83,192.5 -118.56,193.4 -15.9,3.3 -26.29,18.6 -23.44,34.6 0,0 0.04,0.1 0.04,0.2 -43.36,-8.9 -83.86,-16.7 -119.29,-23.3 35.15,-13.4 116.91,-61.2 135.97,-218.4 1.76,-13.7 -7.11,-26.1 -19.76,-29.7 l -3.91,-0.5 c -14.73,-2 -28.28,8.6 -30.04,23.4 -19.18,155.3 -104.18,175.8 -108.51,176.9 -14.54,2.8 -24.14,16.8 -21.49,31.5 0.63,3.2 1.99,6.1 3.6,8.8 -52.97,-9.5 -86.49,-14.9 -86.49,-14.9 l -573.75,-113.1 c 0,0 -0.19,-0.3 -0.43,-0.5 -8.51,-10.4 -136.72,-176.6 309.61,-354.8 16.37,-6.6 33.56,-12.5 51.17,-18.2 3.6,-1.2 6.92,-2.2 10.59,-3.4 7.73,-2.4 15.97,-4.5 23.94,-6.7 13.32,-3.7 26.53,-7.4 40.47,-10.8 0.43,0 0.82,-0.2 1.25,-0.2 589.18,-138.2 1747.85,91.2 1837.27,109.3 3.63,0.7 6.09,1.2 6.09,1.2 l -72.69,574 -0.16,1.2 C 8670.08,3558.7 8539.69,3526 8410.16,3542"
         style="fill:#261f40;fill-opacity:1;fill-rule:nonzero;stroke:none"
         id="path94" />
      <path
         d="m 7016.99,2930.9 c -0.43,0 -0.82,0.2 -1.25,0.2 -13.9,3.4 -27.19,7.1 -40.47,10.8 -7.97,2.2 -16.21,4.3 -23.94,6.7 -3.56,1.2 -7.07,2.2 -10.59,3.4 -17.61,5.7 -34.8,11.6 -51.17,18.2 -446.33,178.2 -318.12,344.4 -309.61,354.8 0.31,0.3 0.43,0.5 0.43,0.5 0,0 -264.76,-283.7 282.31,-468.6 0,0 901.79,-196.6 2007.69,73.7 0,0 4.45,56.8 -10.04,110.8 0,0 -1215.7,-260 -1843.36,-110.5"
         style="fill:#fbc8b6;fill-opacity:1;fill-rule:nonzero;stroke:none"
         id="path96" />
      <path
         d="m 7861.6,3588.3 c 6.02,-1.2 124.18,-28 164.26,-227.1 3.2,-15.9 18.59,-26.2 34.49,-23.1 l 2.15,0.6 c 14.69,4 24.06,18.8 20.94,34 -35.24,175.7 -127.5,239.6 -177.66,262 v 0 c -18.59,8.3 -31.56,11 -33.36,11.4 -16.01,2.7 -31.29,-7.7 -34.18,-23.8 -1.25,-7 0.43,-13.6 3.64,-19.4 4.1,-7.3 10.89,-12.9 19.72,-14.6"
         style="fill:#ffffff;fill-opacity:1;fill-rule:nonzero;stroke:none"
         id="path98" />
      <path
         d="m 7711.48,3540.7 c 4.3,-1.8 104.57,-41.8 125.4,-211.9 1.87,-16 16.4,-27.3 32.38,-25.3 l 4.1,0.7 c 13.75,3.8 22.89,17.1 21.09,31.5 -17.38,142.4 -85.04,210.5 -127.61,239.9 -19.5,13.5 -33.79,18.9 -35.59,19.5 -14.96,5.5 -31.6,-2.4 -36.99,-17.4 -2.89,-8.1 -1.76,-16.5 2.03,-23.5 3.24,-6 8.36,-11.1 15.19,-13.5"
         style="fill:#ffffff;fill-opacity:1;fill-rule:nonzero;stroke:none"
         id="path100" />
      <path
         d="m 7574.73,3500.7 c 4.61,-2.3 97.69,-48.7 119.61,-228.2 2.07,-16.9 17.22,-28.7 33.82,-26.5 l 4.3,0.7 c 14.42,4 24.22,18 22.34,33.1 -18.63,152 -84.6,225.4 -124.25,256.6 -16.92,13.3 -29.14,19.1 -30.75,19.8 -15.35,7 -33.39,0 -40.39,-15.2 -3.12,-7.4 -3.12,-15.3 -0.7,-22.3 2.58,-7.7 8.01,-14.4 16.02,-18"
         style="fill:#ffffff;fill-opacity:1;fill-rule:nonzero;stroke:none"
         id="path102" />
      <path
         d="m 7427.46,3450 c 4.73,-0.9 97.66,-23.8 118.56,-193.4 2.07,-16.2 16.68,-27.8 32.96,-25.8 l 4.22,1 c 13.99,3.7 23.56,17.4 21.64,32.1 -19.29,157 -95.35,214.1 -137.57,234.1 -15.82,7.5 -27.04,10 -28.6,10.3 -15.97,3.1 -31.37,-7.6 -34.61,-23.5 0,-0.1 -0.04,-0.2 -0.04,-0.2 -2.85,-16 7.54,-31.3 23.44,-34.6"
         style="fill:#ffffff;fill-opacity:1;fill-rule:nonzero;stroke:none"
         id="path104" />
      <path
         d="m 7258.52,3413.2 c 4.33,-1.1 89.33,-21.6 108.51,-176.9 1.76,-14.8 15.31,-25.4 30.04,-23.4 l 3.91,0.5 c 12.65,3.6 21.52,16 19.76,29.7 -19.06,157.2 -100.82,205 -135.97,218.4 -8.99,3.4 -15.08,4.8 -16.14,5 -11.44,2.1 -22.34,-3.6 -28,-13 -1.61,-2.7 -2.97,-5.6 -3.6,-8.8 -2.65,-14.7 6.95,-28.7 21.49,-31.5"
         style="fill:#ffffff;fill-opacity:1;fill-rule:nonzero;stroke:none"
         id="path106" />
      <path
         d="m 8143.67,11633.5 -0.12,0.1 c 0,0 -188.82,35.8 -392.18,60.3 -5.24,-24.8 -29.89,-152.1 -12.54,-255.6 h 493.55 l -88.71,195.2"
         style="fill:#f8a18f;fill-opacity:1;fill-rule:nonzero;stroke:none"
         id="path108" />
      <path
         d="m 9035.39,4509.1 c 33.67,419.3 81.21,703.4 110.12,935.5 53.71,430.4 92.07,862.7 140.35,1294.7 49.3,441.2 48.52,886.9 102.89,1331.8 7.46,62.3 39.65,111.4 84.34,148 44.72,36.9 101.68,62.7 162.96,82.7 122.39,39.9 263.6,57.3 358.33,82 h 0.03 c 12.09,3.2 24.39,-4.1 27.49,-16.2 3.1,-12.1 -4.1,-24.5 -16.2,-27.6 -11.99,-3 -25.39,-5.9 -38.43,-8.8 149.13,15.9 320.43,24.8 504.03,31.3 28.8,197.1 77.2,388.7 158.7,564.6 110.2,237.8 278.6,409.3 484.3,544.6 205.5,135.5 448.3,235.4 709.6,332.1 11.8,4.4 24.8,-1.6 29.1,-13.4 v 0 c 101.5,36.7 203.6,70.7 303.8,101.3 -721.2,118.6 -1080.5,396.7 -1202.5,512.3 -442.2,-130 -848.2,-281 -1082.35,-331.8 -414.29,-89.7 -1175.31,-328.8 -1558.59,-537.9 -671.37,-366.4 -517.15,-811.3 -528.13,-1757.7 -14.72,-1263.8 -64.88,-3039.4 52.54,-3778 0,0 98.52,-51.6 280.43,-102 157.7,-43.8 378.68,-86.1 654.38,-93.9 66.99,-1.9 136.33,-2.3 209.65,0.5 l 73.32,681.8 c -12.11,1.2 -21.17,11.8 -20.16,24.1"
         style="fill:#592e18;fill-opacity:1;fill-rule:nonzero;stroke:none"
         id="path110" />
      <path
         d="m 13303.2,15495.5 c 0.8,-0.3 1.7,-0.5 2.5,-0.8 210.3,58.6 436.1,178.5 510.3,356.8 70.4,169.2 112,338.8 102,538 -40.6,-216.6 -100.1,-487 -254.2,-629.8 -119.2,-110.4 -284.8,-198.9 -447.9,-200.7 l 0.9,-19.3 12,5.1 c 0,0 21.6,-22.8 62.3,-48.8 3.9,0.8 8,0.9 12.1,-0.5"
         style="fill:#e67353;fill-opacity:1;fill-rule:nonzero;stroke:none"
         id="path112" />
      <path
         d="m 14056.6,16651.5 c -11.2,-5.6 -24.8,-1.1 -30.4,10 -36,71 -53.8,143.5 -53.9,207.7 0.1,67.1 19.6,126.6 63.2,162.4 9.7,7.8 24,6.4 31.8,-3.3 7.9,-9.7 6.4,-24 -3.3,-31.9 -19.9,-15.9 -34.1,-43.2 -41.2,-77.7 19.9,6.9 41.1,9.7 61.5,9.8 21,0 41.3,-2.6 58.5,-6.2 12.2,-2.6 20.1,-14.6 17.5,-26.8 -2.6,-12.2 -14.6,-20 -26.8,-17.4 -14.4,3 -31.9,5.2 -49.2,5.2 -27.4,0.2 -53,-6.1 -66.5,-17.7 0.6,-55 16.3,-119.8 48.7,-183.7 5.7,-11.1 1.2,-24.7 -9.9,-30.4 z m 159.3,278.8 c -7.1,33.4 -24.6,70.4 -48.4,105 -0.1,-0.5 -0.1,-0.9 -0.1,-1.3 -1.2,2.4 -2.9,5 -4.3,7.6 -22.9,31.8 -51.4,61 -82.8,82.4 -44,24.9 -95.7,28.8 -137.9,-27.3 -0.5,-0.6 -0.8,-1.5 -1.3,-2.2 -26.3,-39.7 -21.4,-178.3 -25,-254.5 4.2,-1.6 7.6,-5 7.6,-9.8 0,-5.3 -4,-9.1 -8.9,-10.3 -0.7,-7 -1.4,-13.3 -2.4,-18.1 -10,-48.7 -22.2,-52.5 -48.6,-54.4 9.3,-61.8 35,-116.9 86.2,-156.1 -0.2,-1.6 -0.2,-3.3 -0.4,-5 -4.8,-41.7 -10.6,-82.7 -17.8,-121.8 -4.4,-23.9 -9,-49.2 -13.8,-75 10,-199.2 -31.6,-368.8 -102,-538 -74.2,-178.3 -300,-298.2 -510.3,-356.8 79.9,-28.4 178.7,-46.2 278.8,-46.2 84.3,0 168.7,12.6 243.9,40.7 48.7,24 100,55.7 153.6,95.7 11.2,11.2 22.3,22.6 32.1,35.3 5.5,7.1 14.4,9.9 22.7,8 19.1,16.1 38.5,33 58.2,51.3 l -32,629.6 -9.7,192.9 c 8.9,5.1 18.1,10.9 27.6,17.8 118.1,85.8 166.1,266 135,410.5"
         style="fill:#f69575;fill-opacity:1;fill-rule:nonzero;stroke:none"
         id="path114" />
      <path
         d="m 12651.1,17186.7 c 156.6,0 289.5,-109.9 322.6,-259.2 4.1,1.4 8.5,1.3 11.7,-2.1 5.6,-6 9.9,-13.4 13.5,-21.5 15.2,7.6 34.4,14 56.8,14.2 22.4,0 47.5,-7.4 72.7,-25.3 24.8,151.1 152.1,269.5 311.1,276.9 5.1,0.1 10.2,0.3 15.3,0.3 175.9,0 322.2,-138.4 330.4,-315.9 l -11.3,-0.5 11.3,0.5 c 0.2,-4.2 0.3,-8.4 0.3,-12.5 h 19 c -20.1,167.8 -15.9,354.6 -110.9,465.3 -27.4,32 -120.9,207.1 -89,296 -33.2,-42.7 -77.6,-77.2 -144.8,-95.9 -156.8,-43.4 -320.2,-41.7 -481.3,-38.9 -105.5,1.9 -249.2,-24.5 -365.6,-11.6 -37.7,-90.1 -64.4,-189.1 -81.5,-292.4 32.6,12.6 67.5,20.6 104.5,22.2 5.1,0.3 10.2,0.4 15.2,0.4"
         style="fill:#f69575;fill-opacity:1;fill-rule:nonzero;stroke:none"
         id="path116" />
      <path
         d="m 13655.7,16427.3 c 62.5,37.4 95.3,106.5 116.8,173.1 13.6,42.3 22.2,86.2 32.3,129.4 0.9,4.1 7.7,26.9 10,41.8 -2.8,15.5 -5.4,31.3 -7.5,47.3 h -22.7 c -10,-166.8 -144.2,-302.6 -314.8,-310.5 -5.2,-0.2 -10.3,-0.3 -15.3,-0.3 -175.9,0 -322.4,138.3 -330.5,315.8 -0.2,5.1 -0.3,10.2 -0.3,15.3 0,9.4 0.6,18.7 1.3,27.8 -25.4,21.3 -48.7,28.4 -69.3,28.5 -19,0.1 -36.1,-6.1 -49.3,-13.2 4,-16.2 5.7,-34.8 5.9,-54.7 -0.2,-71.9 -23.8,-162 -70.8,-218.4 -9.2,-11 -12.1,-19.5 -12.1,-25.4 0.1,-5.3 2,-9.7 6.8,-14.7 4.7,-4.8 12.4,-9.6 22.3,-13.5 19.6,-7.9 47.5,-12.2 75.1,-12.2 28.3,0 56.5,4.5 76.2,12.7 5.7,2.4 12.3,-0.4 14.7,-6.1 2.4,-5.8 -0.3,-12.4 -6.1,-14.8 -23.8,-9.8 -54.1,-14.3 -84.8,-14.4 -45,0.4 -89.7,9 -113.6,32.6 -7.9,7.9 -13.2,18.5 -13.2,30.4 0.1,13.3 6.2,26.5 17.4,39.9 42.1,49.8 65.6,137 65.4,203.9 0.2,15.3 -1.5,28.9 -3.8,41.3 -1.7,-1.4 -3.1,-2.6 -4.2,-3.5 0.1,-3.2 0.2,-6.6 0.2,-9.8 0,-96.4 -41.8,-183.8 -108.6,-244.6 -2.3,-25.3 -39.4,-48.4 -91.3,-58.9 -35.7,-15.5 -74.6,-25.1 -115.8,-27 -5.2,-0.2 -10.3,-0.3 -15.4,-0.3 -37.2,0 -72.9,6.5 -106.4,17.9 2.7,-13.7 5.9,-27.1 9,-40.7 47,-59.6 108.5,-101.1 195.2,-90.1 57.2,7 112.2,29 167.2,45.4 81.3,24.5 163.6,37.2 248.6,31.1 93.4,-6.8 160.7,-53.8 244.3,-88.3 79.8,-32.8 174.6,-16.2 247.1,27.2"
         style="fill:#f69575;fill-opacity:1;fill-rule:nonzero;stroke:none"
         id="path118" />
      <path
         d="m 12559.6,16473.5 c -2.3,9.4 -4.2,19 -6.3,28.5 -0.2,0.3 -0.4,0.5 -0.6,0.8 2,-8.8 4.4,-18.7 6.9,-29.3"
         style="fill:#f69575;fill-opacity:1;fill-rule:nonzero;stroke:none"
         id="path120" />
      <path
         d="m 13630.7,17640.6 c -1.1,-1.8 -2.3,-3.4 -3.4,-5.1 1.1,0.9 1.9,2 3.1,2.9 0,0 0.1,1.1 0.3,2.2"
         style="fill:#f69575;fill-opacity:1;fill-rule:nonzero;stroke:none"
         id="path122" />
      <path
         d="m 13983.5,16865 c -8.5,9.2 -8.1,23.5 1.1,32 11.3,10.4 24.5,16.9 38.2,21.7 7.1,34.5 21.3,61.8 41.2,77.7 9.7,7.9 11.2,22.2 3.3,31.9 -7.8,9.7 -22.1,11.1 -31.8,3.3 -43.6,-35.8 -63.1,-95.3 -63.2,-162.4 0.1,-64.2 17.9,-136.7 53.9,-207.7 5.6,-11.1 19.2,-15.6 30.4,-10 11.1,5.7 15.6,19.3 9.9,30.4 -32.4,63.9 -48.1,128.7 -48.7,183.7 -0.7,-0.6 -1.7,-1 -2.3,-1.6 -9.1,-8.5 -23.5,-8.1 -32,1"
         style="fill:#592630;fill-opacity:1;fill-rule:nonzero;stroke:none"
         id="path124" />
      <path
         d="m 14142.8,16922.3 c -17.2,3.6 -37.5,6.2 -58.5,6.2 -20.4,-0.1 -41.6,-2.9 -61.5,-9.8 -13.7,-4.8 -26.9,-11.3 -38.2,-21.7 -9.2,-8.5 -9.6,-22.8 -1.1,-32 8.5,-9.1 22.9,-9.5 32,-1 0.6,0.6 1.6,1 2.3,1.6 13.5,11.6 39.1,17.9 66.5,17.7 17.3,0 34.8,-2.2 49.2,-5.2 12.2,-2.6 24.2,5.2 26.8,17.4 2.6,12.2 -5.3,24.2 -17.5,26.8"
         style="fill:#592630;fill-opacity:1;fill-rule:nonzero;stroke:none"
         id="path126" />
      <path
         d="m 12873.2,16611 c -26.8,-24.4 -57.5,-44.3 -91.3,-58.9 51.9,10.5 89,33.6 91.3,58.9"
         style="fill:#f57c6e;fill-opacity:1;fill-rule:nonzero;stroke:none"
         id="path128" />
      <path
         d="m 12985.4,16925.4 c -3.2,3.4 -7.6,3.5 -11.7,2.1 2.6,-11.5 4.5,-23.2 5.8,-35.1 5.3,3.8 11.9,7.7 19.4,11.5 -3.6,8.1 -7.9,15.5 -13.5,21.5"
         style="fill:#592630;fill-opacity:1;fill-rule:nonzero;stroke:none"
         id="path130" />
      <path
         d="m 12989.6,16827.6 c 0.2,-66.9 -23.3,-154.1 -65.4,-203.9 -11.2,-13.4 -17.3,-26.6 -17.4,-39.9 0,-11.9 5.3,-22.5 13.2,-30.4 23.9,-23.6 68.6,-32.2 113.6,-32.6 30.7,0.1 61,4.6 84.8,14.4 5.8,2.4 8.5,9 6.1,14.8 -2.4,5.7 -9,8.5 -14.7,6.1 -19.7,-8.2 -47.9,-12.7 -76.2,-12.7 -27.6,0 -55.5,4.3 -75.1,12.2 -9.9,3.9 -17.6,8.7 -22.3,13.5 -4.8,5 -6.7,9.4 -6.8,14.7 0,5.9 2.9,14.4 12.1,25.4 47,56.4 70.6,146.5 70.8,218.4 -0.2,19.9 -1.9,38.5 -5.9,54.7 -9.2,-4.8 -15.7,-9.5 -20.6,-13.4 2.3,-12.4 4,-26 3.8,-41.3"
         style="fill:#592630;fill-opacity:1;fill-rule:nonzero;stroke:none"
         id="path132" />
      <path
         d="m 12960.4,16338.3 c 24.2,-4.7 51.7,-7.5 80.1,-7.5 61,0.2 126.8,11.9 173.8,49.3 9.7,7.8 11.2,22.1 3.4,31.8 -7.9,9.7 -22.1,11.2 -31.8,3.4 -33,-27.1 -90.5,-39.6 -145.4,-39.3 -25.5,0 -50.3,2.5 -71.4,6.7 -12.3,2.4 -24.2,-5.6 -26.6,-17.9 -2.4,-12.2 5.6,-24.1 17.9,-26.5"
         style="fill:#f36e68;fill-opacity:1;fill-rule:nonzero;stroke:none"
         id="path134" />
      <path
         d="m 13630.4,17638.4 c -1.2,-0.9 -2,-2 -3.1,-2.9 1.1,1.7 2.3,3.3 3.4,5.1 -0.2,-1.1 -0.3,-2.2 -0.3,-2.2 z m 287.2,308 c -59.8,20.1 -111.8,26.1 -157.5,21.4 -756.9,185.1 -1207.4,471.1 -1207.4,471.1 -104.5,-226.1 -43.8,-469.2 -43.8,-469.2 -114.3,-28.2 -261.1,179.8 -261.1,179.8 -84.2,-387.7 122.4,-575.7 228.1,-644.4 -7.5,-31.9 -11.8,-64.4 -15.6,-92.2 -11.8,-87.2 -9.8,-185.7 4.2,-284 20.7,14.2 43.1,26 66.9,35.2 17.1,103.3 43.8,202.3 81.5,292.4 116.4,-12.9 260.1,13.5 365.6,11.6 161.1,-2.8 324.5,-4.5 481.3,38.9 67.2,18.7 111.6,53.2 144.8,95.9 -31.9,-88.9 61.6,-264 89,-296 95,-110.7 90.8,-297.5 110.9,-465.3 h 107.9 c 1.4,0 2.4,-1.1 3.7,-1.6 3.6,76.2 -1.3,214.8 25,254.5 0.5,0.7 0.8,1.6 1.3,2.2 42.2,56.1 93.9,52.2 137.9,27.3 31.4,-21.4 59.9,-50.6 82.8,-82.4 1.4,-2.6 3.1,-5.2 4.3,-7.6 0,0.4 0,0.8 0.1,1.3 23.8,-34.6 41.3,-71.6 48.4,-105 31.1,-144.5 -16.9,-324.7 -135,-410.5 -9.5,-6.9 -18.7,-12.7 -27.6,-17.8 l 9.7,-192.9 c 9.2,19 17.4,38.1 24.3,57.1 12.1,33.4 47.2,122.5 57.5,143.6 251.3,521.5 200.3,1293.2 -227.2,1436.6"
         style="fill:#642318;fill-opacity:1;fill-rule:nonzero;stroke:none"
         id="path136" />
      <path
         d="m 13214.3,16380.1 c -47,-37.4 -112.8,-49.1 -173.8,-49.3 -28.4,0 -55.9,2.8 -80.1,7.5 -12.3,2.4 -20.3,14.3 -17.9,26.5 2.4,12.3 14.3,20.3 26.6,17.9 21.1,-4.2 45.9,-6.7 71.4,-6.7 54.9,-0.3 112.4,12.2 145.4,39.3 9.7,7.8 23.9,6.3 31.8,-3.4 7.8,-9.7 6.3,-24 -3.4,-31.8 z m 649.5,367.3 c 26.4,1.9 38.6,5.7 48.6,54.4 1,4.8 1.7,11.1 2.4,18.1 -0.9,-0.2 -1.4,-1 -2.4,-1 h -105.1 c 2.1,-16 4.7,-31.8 7.5,-47.3 -2.3,-14.9 -9.1,-37.7 -10,-41.8 -10.1,-43.2 -18.7,-87.1 -32.3,-129.4 -21.5,-66.6 -54.3,-135.7 -116.8,-173.1 -72.5,-43.4 -167.3,-60 -247.1,-27.2 -83.6,34.5 -150.9,81.5 -244.3,88.3 -85,6.1 -167.3,-6.6 -248.6,-31.1 -55,-16.4 -110,-38.4 -167.2,-45.4 -87.1,-11 -148.8,30.8 -195.8,90.9 2,-8.8 4.4,-18.7 6.9,-29.3 33.4,-136 112.6,-409.7 162.4,-503.6 89.4,-168.4 122.8,-271.1 294.8,-363.6 63.5,-34.1 131.1,-48.1 199.1,-47.3 163.1,1.8 328.7,90.3 447.9,200.7 154.1,142.8 213.6,413.2 254.2,629.8 4.8,25.8 9.4,51.1 13.8,75 7.5,40.7 13.6,83.2 18.5,126.6 -51.4,39.1 -77.1,94.4 -86.5,156.3"
         style="fill:#642318;fill-opacity:1;fill-rule:nonzero;stroke:none"
         id="path138" />
      <path
         d="m 14458.8,9306 c -483,50.9 -1137.4,527.9 -1617.4,530.6 -257.9,1.4 -484.9,22.2 -684.6,55.1 -100.2,-30.6 -202.3,-64.6 -303.8,-101.3 4.2,-11.8 -1.7,-24.7 -13.4,-29 -260.3,-96.3 -500.1,-195.3 -700.5,-327.4 -200.5,-132.2 -361.7,-296.7 -468,-525.9 -130.4,-280.6 -174.6,-606.5 -189.1,-933.1 -1.1,-38.7 -2.2,-77.8 -3.2,-117.3 -0.9,-36.3 -1.8,-75.7 -2.8,-116.5 -0.5,-44.4 -0.7,-88.6 -0.7,-132.6 0,-93.5 0.8,-185.6 0.8,-275.4 0,-251.3 -7.9,-520.2 -7.9,-783.7 0,-156.4 2.7,-310.8 11.5,-458.5 5.3,-88.7 7,-179.9 7,-275.6 0,-183.7 -6.3,-383.9 -6.3,-614 0,-189.2 4.2,-398.6 19.8,-635.8 0.9,-12.4 -8.6,-23.2 -21.1,-24 -0.1,0 -0.2,0 -0.3,0 9.7,-221.3 22.6,-421.9 39.8,-588.2 0,0 97.4,-92.7 290.5,-169.8 h 0.1 c 51.9,-20.7 110.8,-40.3 176.6,-56.7 150.4,-37.4 337,-57.6 559.3,-35.8 49.9,4.9 101.4,11.7 154.9,21.1 l 336.9,2914.9 5.4,47.3 c 42.7,281.2 58.8,534.2 64.3,751.7 10.1,404.1 -17.5,683.1 13.8,777.1 109.1,327.5 970.6,153.4 1666.2,243.2 274.7,35.5 523.6,112 690,277 12.2,12.2 24.1,25.3 35.8,38.8 l -53.6,543.8"
         style="fill:#713c20;fill-opacity:1;fill-rule:nonzero;stroke:none"
         id="path140" />
      <path
         d="m 9996.68,11482 h 2.85 l -88.59,422.6 c -421.53,-78.3 -1012.07,-156.2 -1840.28,-220.4 l 23.09,-50.7 88.75,-195.2 h 410.98 c 31.72,0 57.46,-30.2 57.46,-67.6 0,-37.4 -25.74,-67.6 -57.46,-67.6 h 1527.22 c 0,0 -101.8,0 -124.02,178.9"
         style="fill:#6b783e;fill-opacity:1;fill-rule:nonzero;stroke:none"
         id="path142" />
      <path
         d="m 14975.9,10245.6 c -12.5,1.1 -21.7,12.1 -20.6,24.5 13.1,152 10.4,361.1 19.1,586.7 h -265.2 l 136.5,-1383.6 h 41.4 c 51.2,134.9 85.7,445.4 108.9,782.2 -4.5,-6.4 -11.8,-10.4 -20.1,-9.8"
         style="fill:#6b783e;fill-opacity:1;fill-rule:nonzero;stroke:none"
         id="path144" />
      <path
         d="m 15026.6,10856.8 h -7 c -4.8,-125.8 -6.2,-246.9 -8.8,-356.5 6.5,122.6 11.7,243.7 15.8,356.5"
         style="fill:#6b783e;fill-opacity:1;fill-rule:nonzero;stroke:none"
         id="path146" />
      <path
         d="m 12004.5,14885.1 c 428.6,143.7 973.9,396.4 1203.3,491.4 11.5,4.8 24.7,-0.7 29.5,-12.2 4.8,-11.6 -0.7,-24.8 -12.2,-29.6 -227.8,-94.3 -774,-347.6 -1206.3,-492.4 h 0.1 c -11.9,-4 -24.7,2.4 -28.7,14.2 -3.9,11.8 2.4,24.6 14.3,28.6 z m 2261,579 c 3,12.1 15.3,19.4 27.4,16.4 119.8,-30.3 227.3,-106 336.9,-141.9 155.4,-51.3 288.1,-118.2 430.8,-188 183.6,-90.1 372.1,-179.7 562.8,-221.9 12.1,-2.7 19.8,-14.8 17.1,-27 -2.6,-12.2 -14.7,-19.9 -26.9,-17.2 -197.7,43.9 -389,135.3 -572.9,225.5 -143.1,70 -273.6,135.7 -425,185.7 -118.1,39.5 -225.2,114.3 -333.7,140.9 -12.2,3.1 -19.5,15.3 -16.5,27.5 z m -2276.6,-1615.7 c 0.1,19.3 0.2,38.4 0.2,58 0,12.5 10.1,22.6 22.6,22.6 12.4,0 22.6,-10.1 22.6,-22.6 0,-19.6 -0.1,-38.7 -0.2,-58 h 1406.8 l 328.9,-1569.4 c 185.2,37.9 374.8,66.7 573.2,84.4 178.1,23.1 356.5,40.5 534.7,52.2 -25.6,183.5 -27.7,366.6 -28.3,549.1 -0.9,256.6 0,511.9 -59.5,766.2 -2.8,12.2 4.7,24.4 16.9,27.2 12.2,2.8 24.3,-4.7 27.2,-16.8 60.9,-261.1 59.7,-520.1 60.6,-776.4 0.6,-167.5 2.4,-333.8 22.1,-499 97.5,60.6 171.1,140 251.5,234.2 8.1,9.5 22.3,10.6 31.8,2.5 9.5,-8.1 10.6,-22.3 2.5,-31.8 -84.1,-98.6 -163.5,-186.1 -274.5,-251.9 18.5,1.1 37,2.7 55.4,3.7 182.9,9.3 362.1,20.5 541.5,20.5 188.4,0 376.8,-12.3 569.4,-52 12.2,-2.6 20,-14.5 17.5,-26.8 -2.5,-12.2 -14.5,-20.1 -26.7,-17.5 -27,5.5 -53.8,9.4 -80.8,13.9 343.4,-60.5 356.7,-157.6 356.7,-157.6 18.8,-45.2 40.2,-96.8 59.5,-151.4 -0.8,30.7 -1.4,48 -1.4,48 l -266.4,1843.3 c 41.4,837 -402,1025.2 -402,1025.2 l -1648.9,717.5 c -2.2,-2.2 -4.5,-4.1 -6.8,-6.2 -19.7,-18.3 -39.1,-35.2 -58.2,-51.3 3.1,-0.7 6.2,-1.9 9,-4 9.8,-7.6 11.7,-21.8 4,-31.7 -107.5,-138.5 -290.2,-189.1 -465.3,-189.2 -106.4,0 -210.8,18.7 -296.6,49.6 v 0 c -11.7,4.3 -17.9,17.2 -13.6,29 2.8,7.6 9.3,12.5 16.8,14.1 -40.7,26 -62.3,48.8 -62.3,48.8 l -12,-5.1 v 0 l -1116.9,-475.1 c 0,0 -498.8,-160.8 -608.5,-817.1 -20,-120.3 -51.8,-260.6 -85.9,-399.1 h 583.4"
         style="fill:#6b783e;fill-opacity:1;fill-rule:nonzero;stroke:none"
         id="path148" />
      <path
         d="m 15918.1,12374.1 c 24.4,-3.3 47.8,-6.8 69.5,-10.5 -23.1,3.7 -46.4,7.5 -69.5,10.5"
         style="fill:#6b783e;fill-opacity:1;fill-rule:nonzero;stroke:none"
         id="path150" />
      <path
         d="m 12156.8,9891.7 c 199.7,-32.9 426.7,-53.7 684.6,-55.1 480,-2.7 1134.4,-479.7 1617.4,-530.6 l -153.1,1550.8 h -2846.2 c -23.2,-36.8 -38.8,-59.3 -38.8,-59.3 -101.5,-108.6 -516.2,-341.8 -516.2,-341.8 0,0 15.9,-19.6 49.8,-51.7 122,-115.6 481.3,-393.7 1202.5,-512.3"
         style="fill:#6b783e;fill-opacity:1;fill-rule:nonzero;stroke:none"
         id="path152" />
      <path
         d="m 13982,15584.9 c -53.6,-40 -104.9,-71.7 -153.6,-95.7 58.6,21.9 111,53.5 153.6,95.7"
         style="fill:#6b783e;fill-opacity:1;fill-rule:nonzero;stroke:none"
         id="path154" />
      <path
         d="m 14894.5,12425.3 c -6.3,10.8 -2.7,24.7 8,31 5,2.9 9.3,6.5 14.2,9.6 -19.7,165.2 -21.5,331.5 -22.1,499 -0.9,256.3 0.3,515.3 -60.6,776.4 -2.9,12.1 -15,19.6 -27.2,16.8 -12.2,-2.8 -19.7,-15 -16.9,-27.2 59.5,-254.3 58.6,-509.6 59.5,-766.2 0.6,-182.5 2.7,-365.6 28.3,-549.1 8.6,0.5 17.1,1.1 25.7,1.7 -3.6,1.8 -6.8,4.3 -8.9,8"
         style="fill:#1d1e32;fill-opacity:1;fill-rule:nonzero;stroke:none"
         id="path156" />
      <path
         d="m 12011.7,13929 c -12.5,0 -22.6,-10.1 -22.6,-22.6 0,-19.6 -0.1,-38.7 -0.2,-58 h 45.2 c 0.1,19.3 0.2,38.4 0.2,58 0,12.5 -10.2,22.6 -22.6,22.6"
         style="fill:#1d1e32;fill-opacity:1;fill-rule:nonzero;stroke:none"
         id="path158" />
      <path
         d="m 14975.9,10245.6 c 8.3,-0.6 15.6,3.4 20.1,9.8 2.2,3.2 4,6.7 4.3,10.8 5.8,68.6 8.5,147.9 10.5,234.1 2.6,109.6 4,230.7 8.8,356.5 h -45.2 c -8.7,-225.6 -6,-434.7 -19.1,-586.7 -1.1,-12.4 8.1,-23.4 20.6,-24.5"
         style="fill:#1d1e32;fill-opacity:1;fill-rule:nonzero;stroke:none"
         id="path160" />
      <path
         d="m 14014.1,15620.2 c -9.8,-12.7 -20.9,-24.1 -32.1,-35.3 -42.6,-42.2 -95,-73.8 -153.6,-95.7 -75.2,-28.1 -159.6,-40.7 -243.9,-40.7 -100.1,0 -198.9,17.8 -278.8,46.2 -0.8,0.3 -1.7,0.5 -2.5,0.8 -4.1,1.4 -8.2,1.3 -12.1,0.5 -7.5,-1.6 -14,-6.5 -16.8,-14.1 -4.3,-11.8 1.9,-24.7 13.6,-29 v 0 c 85.8,-30.9 190.2,-49.6 296.6,-49.6 175.1,0.1 357.8,50.7 465.3,189.2 7.7,9.9 5.8,24.1 -4,31.7 -2.8,2.1 -5.9,3.3 -9,4 -8.3,1.9 -17.2,-0.9 -22.7,-8"
         style="fill:#1d1e32;fill-opacity:1;fill-rule:nonzero;stroke:none"
         id="path162" />
      <path
         d="m 12018.9,14842.3 h -0.1 c 432.3,144.8 978.5,398.1 1206.3,492.4 11.5,4.8 17,18 12.2,29.6 -4.8,11.5 -18,17 -29.5,12.2 -229.4,-95 -774.7,-347.7 -1203.3,-491.4 -11.9,-4 -18.2,-16.8 -14.3,-28.6 4,-11.8 16.8,-18.2 28.7,-14.2"
         style="fill:#1d1e32;fill-opacity:1;fill-rule:nonzero;stroke:none"
         id="path164" />
      <path
         d="m 14282,15436.6 c 108.5,-26.6 215.6,-101.4 333.7,-140.9 151.4,-50 281.9,-115.7 425,-185.7 183.9,-90.2 375.2,-181.6 572.9,-225.5 12.2,-2.7 24.3,5 26.9,17.2 2.7,12.2 -5,24.3 -17.1,27 -190.7,42.2 -379.2,131.8 -562.8,221.9 -142.7,69.8 -275.4,136.7 -430.8,188 -109.6,35.9 -217.1,111.6 -336.9,141.9 -12.1,3 -24.4,-4.3 -27.4,-16.4 -3,-12.2 4.3,-24.4 16.5,-27.5"
         style="fill:#1d1e32;fill-opacity:1;fill-rule:nonzero;stroke:none"
         id="path166" />
      <path
         d="m 16004.3,12360.7 c -5.5,1 -11.1,2.1 -16.7,2.9 -21.7,3.7 -45.1,7.2 -69.5,10.5 -131.5,17.2 -262.1,23.8 -393.2,23.8 -177.5,0 -356,-11.1 -539.1,-20.5 -401.9,-20.7 -806.3,-74.7 -1205.2,-150.2 l 156.1,-745.2 h 1921.8 c 0,-79.5 -29.3,-123.6 -61.6,-148.1 19.8,2.6 39.5,5 59.4,8.2 72.6,11.7 145.2,27 218.3,47.5 117.9,32.9 301.7,100.7 361.8,209.8 73.8,133.8 36.6,304.6 -15.9,452.3 -19.3,54.6 -40.7,106.2 -59.5,151.4 0,0 -13.3,97.1 -356.7,157.6"
         style="fill:#6b783e;fill-opacity:1;fill-rule:nonzero;stroke:none"
         id="path168" />
      <path
         d="m 13769.8,12279 1.6,-7.6 c 189.5,35.9 380.3,67.1 571.6,92 -198.4,-17.7 -388,-46.5 -573.2,-84.4"
         style="fill:#6b783e;fill-opacity:1;fill-rule:nonzero;stroke:none"
         id="path170" />
      <path
         d="m 14894.5,12425.3 c 2.1,-3.7 5.3,-6.2 8.9,-8 8.1,0.5 16.4,1.1 24.6,1.6 111,65.8 190.4,153.3 274.5,251.9 8.1,9.5 7,23.7 -2.5,31.8 -9.5,8.1 -23.7,7 -31.8,-2.5 -80.4,-94.2 -154,-173.6 -251.5,-234.2 -4.9,-3.1 -9.2,-6.7 -14.2,-9.6 -10.7,-6.3 -14.3,-20.2 -8,-31"
         style="fill:#1d1e32;fill-opacity:1;fill-rule:nonzero;stroke:none"
         id="path172" />
      <path
         d="m 14985.8,12377.4 c 183.1,9.4 361.6,20.5 539.1,20.5 131.1,0 261.7,-6.6 393.2,-23.8 23.1,-3 46.4,-6.8 69.5,-10.5 5.6,-0.8 11.2,-1.9 16.7,-2.9 27,-4.5 53.8,-8.4 80.8,-13.9 12.2,-2.6 24.2,5.3 26.7,17.5 2.5,12.3 -5.3,24.2 -17.5,26.8 -192.6,39.7 -381,52 -569.4,52 -179.4,0 -358.6,-11.2 -541.5,-20.5 -18.4,-1 -36.9,-2.6 -55.4,-3.7 -8.2,-0.5 -16.5,-1.1 -24.6,-1.6 -8.6,-0.6 -17.1,-1.2 -25.7,-1.7 -178.2,-11.7 -356.6,-29.1 -534.7,-52.2 -191.3,-24.9 -382.1,-56.1 -571.6,-92 l 9.2,-44.2 c 398.9,75.5 803.3,129.5 1205.2,150.2"
         style="fill:#1d1e32;fill-opacity:1;fill-rule:nonzero;stroke:none"
         id="path174" />
      <path
         d="m 10500.2,4565.6 c -15.6,237.2 -19.8,446.6 -19.8,635.8 0,230.1 6.3,430.3 6.3,614 0,95.7 -1.7,186.9 -7,275.6 -8.8,147.7 -11.5,302.1 -11.5,458.5 0,263.5 7.9,532.4 7.9,783.7 0,89.8 -0.8,181.9 -0.8,275.4 0,44 0.2,88.2 0.7,132.6 0.8,77.6 2.6,155.6 6,233.8 14.5,326.6 58.7,652.5 189.1,933.1 106.3,229.2 267.5,393.7 468,525.9 200.4,132.1 440.2,231.1 700.5,327.4 11.7,4.3 17.6,17.2 13.4,29 v 0 c -4.3,11.8 -17.3,17.8 -29.1,13.4 -261.3,-96.7 -504.1,-196.6 -709.6,-332.1 -205.7,-135.3 -374.1,-306.8 -484.3,-544.6 -81.5,-175.9 -129.9,-367.5 -158.7,-564.6 -36.2,-248.9 -41.1,-506.9 -41.2,-753.9 0,-61.8 0.3,-122.5 0.5,-182.5 0.1,-31.1 0.3,-62.4 0.3,-92.9 0,-250.4 -7.9,-519.3 -7.9,-783.7 0,-156.8 2.7,-312.2 11.6,-461.2 5.2,-87.4 6.9,-177.8 6.9,-272.9 0,-182.6 -6.4,-383 -6.4,-614 0,-189.9 4.3,-400.4 20,-638.7 0.8,-12.3 11.3,-21.6 23.7,-21.1 0.1,0 0.2,0 0.3,0 12.5,0.8 22,11.6 21.1,24"
         style="fill:#1d1e32;fill-opacity:1;fill-rule:nonzero;stroke:none"
         id="path176" />
      <path
         d="m 9501.88,8184.3 c 56.83,47.2 145.78,77.7 238.98,99.7 78.28,18.7 158.28,32.1 226.41,47.2 13.04,2.9 26.44,5.8 38.43,8.8 12.1,3.1 19.3,15.5 16.2,27.6 -3.1,12.1 -15.4,19.4 -27.49,16.2 h -0.03 c -94.73,-24.7 -235.94,-42.1 -358.33,-82 -61.28,-20 -118.24,-45.8 -162.96,-82.7 -44.69,-36.6 -76.88,-85.7 -84.34,-148 -54.37,-444.9 -53.59,-890.6 -102.89,-1331.8 -48.28,-432 -86.64,-864.3 -140.35,-1294.7 -28.91,-232.1 -76.45,-516.2 -110.12,-935.5 -1.01,-12.3 8.05,-22.9 20.16,-24.1 0.19,-0.1 0.39,-0.2 0.58,-0.2 12.42,-1.1 23.36,8.2 24.38,20.7 33.47,417.5 80.74,700 109.84,933.4 53.91,431.6 92.23,864.1 140.43,1295.3 25.74,230.7 37.97,461.5 51.25,691.9 12.38,213.8 25.63,427.1 51.64,639.5 6.25,49.9 30.28,87.1 68.21,118.7"
         style="fill:#1d1e32;fill-opacity:1;fill-rule:nonzero;stroke:none"
         id="path178" />
      <path
         d="m 12509.4,16934.2 c -18.3,54.5 -31.9,111.9 -41.4,169.7 -76.4,-56.4 -125.4,-146.9 -125.4,-247.9 0,-4.7 0.1,-9.5 0.4,-14.4 5.6,-125.6 85.8,-230.1 196,-273.1 -22.3,119.2 -32.6,243.2 -29.6,365.7"
         style="fill:#ffffff;fill-opacity:1;fill-rule:nonzero;stroke:none"
         id="path180" />
      <path
         d="m 12509.4,16934.2 c 1.7,68.9 7.7,137.1 17.6,203.8 -21,-9.2 -40.8,-20.7 -59,-34.1 9.5,-57.8 23.1,-115.2 41.4,-169.7"
         style="fill:#854031;fill-opacity:1;fill-rule:nonzero;stroke:none"
         id="path182" />
      <path
         d="m 12724.8,16805.9 c -2.9,46.8 17.4,86 45.5,87.8 0.6,0.1 1.3,0.1 2,0.1 27.3,0 51.2,-35.9 54.1,-81.5 3,-46.9 -17.5,-86.1 -45.5,-87.9 -0.6,0 -1.3,-0.1 -1.9,-0.1 -27.3,0 -51.2,35.8 -54.2,81.6 z m 181.8,221.7 c -19.3,-52.6 -178.2,-46 -225.8,-57.5 -15.3,-3.8 -27.8,-5.4 -37.7,-5.4 -52.9,0 -33.3,47.8 16.2,86.6 22.5,17.5 97.7,38.4 159.6,38.4 12.9,0 24.9,-1.1 35.9,-3.2 -54.5,48.3 -125.9,77.6 -203.7,77.6 -4.7,0 -9.5,-0.2 -14.2,-0.3 -39.1,-1.8 -76,-11 -109.9,-25.8 -9.9,-66.7 -15.9,-134.9 -17.6,-203.8 -3,-122.5 7.3,-246.5 29.6,-365.7 34.7,-13.5 72.4,-21.1 111.7,-21.1 4.8,0 9.5,0.1 14.3,0.3 5.1,0.2 10.1,1 15,1.4 -45,7.1 -77,25.3 -78.4,48.9 -2.2,33.2 57,63.9 132.4,68.6 6.7,0.5 13.3,0.7 19.8,0.7 51,0 93.5,-13.1 111.3,-32.9 58.1,56.3 94.1,134.8 94.1,221.2 0,4.8 -0.1,9.5 -0.3,14.3 -2.7,58.5 -21.8,112.4 -52.3,157.7"
         style="fill:#f8af92;fill-opacity:1;fill-rule:nonzero;stroke:none"
         id="path184" />
      <path
         d="m 12780.9,16724.4 c 28,1.8 48.5,41 45.5,87.9 -2.9,45.6 -26.8,81.5 -54.1,81.5 -0.7,0 -1.4,0 -2,-0.1 -28.1,-1.8 -48.4,-41 -45.5,-87.8 3,-45.8 26.9,-81.6 54.2,-81.6 0.6,0 1.3,0.1 1.9,0.1"
         style="fill:#383953;fill-opacity:1;fill-rule:nonzero;stroke:none"
         id="path186" />
      <path
         d="m 12753.8,16667.3 c -6.5,0 -13.1,-0.2 -19.8,-0.7 -75.4,-4.7 -134.6,-35.4 -132.4,-68.6 1.4,-23.6 33.4,-41.8 78.4,-48.9 72,6.8 136.4,38.1 185.1,85.3 -17.8,19.8 -60.3,32.9 -111.3,32.9"
         style="fill:#f89a8c;fill-opacity:1;fill-rule:nonzero;stroke:none"
         id="path188" />
      <path
         d="m 12818.9,17089.7 c -61.9,0 -137.1,-20.9 -159.6,-38.4 -49.5,-38.8 -69.1,-86.6 -16.2,-86.6 9.9,0 22.4,1.6 37.7,5.4 47.6,11.5 206.5,4.9 225.8,57.5 -14.7,21.8 -32.1,41.6 -51.8,58.9 -11,2.1 -23,3.2 -35.9,3.2"
         style="fill:#854031;fill-opacity:1;fill-rule:nonzero;stroke:none"
         id="path190" />
      <path
         d="m 13434.4,16850.6 c 2.8,-46.7 -17.3,-86.2 -45.5,-87.9 -0.6,0 -1.2,0 -1.9,0 -27.2,0 -51.3,35.7 -54.2,81.4 -3.1,46.8 17.3,86.2 45.4,88 0.7,0.1 1.4,0.1 2.1,0.1 27.3,0 51.3,-35.9 54.1,-81.6 z m 106.3,-155 c 2.2,-33.3 -57.3,-64.1 -132.3,-68.7 -6.7,-0.4 -13.4,-0.6 -19.8,-0.6 -66.1,0 -118.5,21.8 -120.3,52 -2.2,33.2 57.2,64.1 132.4,68.9 6.4,0.4 12.8,0.6 19.1,0.6 66.5,0 119,-21.9 120.9,-52.2 z m -392.5,176.7 c -1.2,-10.9 -1.9,-21.9 -1.9,-33.1 0,-4.7 0.1,-9.5 0.3,-14.3 7.5,-165.3 144.1,-294.2 307.9,-294.2 4.7,0 9.4,0.1 14.2,0.3 165.3,7.6 294.2,143.9 294.2,307.6 0,4.9 -0.1,9.7 -0.3,14.5 v 0 c -7.6,165.3 -144,294.3 -307.8,294.3 -4.7,0 -9.5,-0.1 -14.3,-0.3 -49.7,-2.3 -96,-16.4 -136.6,-39.2 20.8,6.8 46.9,9.7 73.7,9.7 53.8,0 110,-11.3 129.9,-23.9 56.5,-35.8 80.5,-85.1 13.8,-85.1 -7.7,0 -16.7,0.7 -27.1,2.1 -7.8,1.1 -18.5,1.4 -30.9,1.4 -9.9,0 -20.9,-0.2 -32.5,-0.4 -11.6,-0.2 -23.8,-0.4 -36.3,-0.4 -71.1,0 -146.6,6.9 -132.5,60.8 1.1,4.1 2.9,7.9 5.2,11.4 -65.2,-50.1 -109.6,-125.4 -119,-210.7 0,-0.2 0,-0.3 0,-0.5"
         style="fill:#f8af92;fill-opacity:1;fill-rule:nonzero;stroke:none"
         id="path192" />
      <path
         d="m 13380.3,16932.2 c -0.7,0 -1.4,0 -2.1,-0.1 -28.1,-1.8 -48.5,-41.2 -45.4,-88 2.9,-45.7 27,-81.4 54.2,-81.4 0.7,0 1.3,0 1.9,0 28.2,1.7 48.3,41.2 45.5,87.9 -2.8,45.7 -26.8,81.6 -54.1,81.6"
         style="fill:#383953;fill-opacity:1;fill-rule:nonzero;stroke:none"
         id="path194" />
      <path
         d="m 13419.8,16747.8 c -6.3,0 -12.7,-0.2 -19.1,-0.6 -75.2,-4.8 -134.6,-35.7 -132.4,-68.9 1.8,-30.2 54.2,-52 120.3,-52 6.4,0 13.1,0.2 19.8,0.6 75,4.6 134.5,35.4 132.3,68.7 -1.9,30.3 -54.4,52.2 -120.9,52.2"
         style="fill:#f89a8c;fill-opacity:1;fill-rule:nonzero;stroke:none"
         id="path196" />
      <path
         d="m 13394.5,17011.3 c 12.5,0 24.7,0.2 36.3,0.4 11.6,0.2 22.6,0.4 32.5,0.4 12.4,0 23.1,-0.3 30.9,-1.4 10.4,-1.4 19.4,-2.1 27.1,-2.1 66.7,0 42.7,49.3 -13.8,85.1 -19.9,12.6 -76.1,23.9 -129.9,23.9 -26.8,0 -52.9,-2.9 -73.7,-9.7 -12.8,-7.2 -25,-15.4 -36.7,-24.4 -2.3,-3.5 -4.1,-7.3 -5.2,-11.4 -14.1,-53.9 61.4,-60.8 132.5,-60.8"
         style="fill:#854031;fill-opacity:1;fill-rule:nonzero;stroke:none"
         id="path198" />
      <path
         d="m 12959.2,16855.6 c 0,-86.4 -36,-164.9 -94.1,-221.2 -48.7,-47.2 -113.1,-78.5 -185.1,-85.3 -4.9,-0.4 -9.9,-1.2 -15,-1.4 -4.8,-0.2 -9.5,-0.3 -14.3,-0.3 -39.3,0 -77,7.6 -111.7,21.1 -110.2,43 -190.4,147.5 -196,273.1 -0.3,4.9 -0.4,9.7 -0.4,14.4 0,101 49,191.5 125.4,247.9 18.2,13.4 38,24.9 59,34.1 33.9,14.8 70.8,24 109.9,25.8 4.7,0.1 9.5,0.3 14.2,0.3 77.8,0 149.2,-29.3 203.7,-77.6 19.7,-17.3 37.1,-37.1 51.8,-58.9 30.5,-45.3 49.6,-99.2 52.3,-157.7 0.2,-4.8 0.3,-9.5 0.3,-14.3 z m -293.1,-330.5 c 41.2,1.9 80.1,11.5 115.8,27 33.8,14.6 64.5,34.5 91.3,58.9 66.8,60.8 108.6,148.2 108.6,244.6 0,3.2 -0.1,6.6 -0.2,9.8 -0.5,-0.5 -1.8,-1.4 -2.1,-1.7 l -1.2,-1.2 v 0 l -16,-0.2 -0.2,16 c 0.4,0.3 6.7,6.6 17.4,14.1 -1.3,11.9 -3.2,23.6 -5.8,35.1 -33.1,149.3 -166,259.2 -322.6,259.2 -5,0 -10.1,-0.1 -15.2,-0.4 -37,-1.6 -71.9,-9.6 -104.5,-22.2 -23.8,-9.2 -46.2,-21 -66.9,-35.2 -87.5,-59.8 -144.5,-160.1 -144.5,-272.9 0,-5.1 0.1,-10.3 0.4,-15.4 6.3,-139.9 98.8,-255.2 223.9,-297.9 33.5,-11.4 69.2,-17.9 106.4,-17.9 5.1,0 10.2,0.1 15.4,0.3"
         style="fill:#061518;fill-opacity:1;fill-rule:nonzero;stroke:none"
         id="path200" />
      <path
         d="m 13770.2,16830.2 c 0,6.3 5,11.4 11.2,11.4 h 4.1 c 0,4.1 -0.1,8.3 -0.3,12.5 l -11.3,-0.5 11.3,0.5 c -8.2,177.5 -154.5,315.9 -330.4,315.9 -5.1,0 -10.2,-0.2 -15.3,-0.3 -159,-7.4 -286.3,-125.8 -311.1,-276.9 5.4,-3.8 10.8,-7.5 16.2,-12.3 2.3,-2.1 3.4,-4.9 3.6,-7.7 9.4,85.3 53.8,160.6 119,210.7 11.7,9 23.9,17.2 36.7,24.4 40.6,22.8 86.9,36.9 136.6,39.2 4.8,0.2 9.6,0.3 14.3,0.3 163.8,0 300.2,-129 307.8,-294.3 v 0 c 0.2,-4.8 0.3,-9.6 0.3,-14.5 0,-163.7 -128.9,-300 -294.2,-307.6 -4.8,-0.2 -9.5,-0.3 -14.2,-0.3 -163.8,0 -300.4,128.9 -307.9,294.2 -0.2,4.8 -0.3,9.6 -0.3,14.3 0,11.2 0.7,22.2 1.9,33.1 0,-2.8 -0.8,-5.6 -2.8,-7.9 -4.1,-4.6 -11.3,-5 -15.9,-0.8 -1.5,1.4 -2.9,2.2 -4.5,3.4 -0.7,-9.1 -1.3,-18.4 -1.3,-27.8 0,-5.1 0.1,-10.2 0.3,-15.3 8.1,-177.5 154.6,-315.8 330.5,-315.8 5,0 10.1,0.1 15.3,0.3 170.6,7.9 304.8,143.7 314.8,310.5 h -3.2 c -6.2,0 -11.2,5.1 -11.2,11.3"
         style="fill:#061518;fill-opacity:1;fill-rule:nonzero;stroke:none"
         id="path202" />
      <path
         d="m 13145.4,16864.4 c 2,2.3 2.8,5.1 2.8,7.9 0,0.2 0,0.3 0,0.5 -0.2,2.8 -1.3,5.6 -3.6,7.7 -5.4,4.8 -10.8,8.5 -16.2,12.3 -25.2,17.9 -50.3,25.3 -72.7,25.3 -22.4,-0.2 -41.6,-6.6 -56.8,-14.2 -7.5,-3.8 -14.1,-7.7 -19.4,-11.5 -10.7,-7.5 -17,-13.8 -17.4,-14.1 l 0.2,-16 16,0.2 v 0 l 1.2,1.2 c 0.3,0.3 1.6,1.2 2.1,1.7 1.1,0.9 2.5,2.1 4.2,3.5 4.9,3.9 11.4,8.6 20.6,13.4 13.2,7.1 30.3,13.3 49.3,13.2 20.6,-0.1 43.9,-7.2 69.3,-28.5 1.6,-1.2 3,-2 4.5,-3.4 4.6,-4.2 11.8,-3.8 15.9,0.8"
         style="fill:#061518;fill-opacity:1;fill-rule:nonzero;stroke:none"
         id="path204" />
      <path
         d="m 13914.8,16819.9 c 4.9,1.2 8.9,5 8.9,10.3 0,4.8 -3.4,8.2 -7.6,9.8 -1.3,0.5 -2.3,1.6 -3.7,1.6 h -107.9 -19 -4.1 c -6.2,0 -11.2,-5.1 -11.2,-11.4 0,-6.2 5,-11.3 11.2,-11.3 h 3.2 22.7 105.1 c 1,0 1.5,0.8 2.4,1"
         style="fill:#061518;fill-opacity:1;fill-rule:nonzero;stroke:none"
         id="path206" />
      <path
         d="m 14305.7,10856.8 v 446.3 H 2892.34 v -446.3 h 403.52 3307.93 403.51 4452.2 2846.2"
         style="fill:#dfb38f;fill-opacity:1;fill-rule:nonzero;stroke:none"
         id="path208" />
      <path
         d="m 14305.7,11303.1 v -446.3 h 4115 v 446.3 h -2568.5 -139.6 -1406.9"
         style="fill:#c58062;fill-opacity:1;fill-rule:nonzero;stroke:none"
         id="path210" />
      <path
         d="M 6467.23,9473.2 H 3159.3 l 136.56,1383.6 H 2892.34 L 2100.98,2838.9 h 403.51 L 3119.3,9067.8 H 6427.23 L 5812.42,2838.9 h 403.56 l 791.32,8017.9 H 6603.79 L 6467.23,9473.2"
         style="fill:#27294a;fill-opacity:1;fill-rule:nonzero;stroke:none"
         id="path212" />
      <path
         d="m 18420.7,10856.8 h -403.6 l 136.6,-1383.6 h -3308 l -136.5,1383.6 h -403.5 l 153.1,-1550.8 53.6,-543.8 31.2,-315.8 100.7,-1020.3 452.8,-4587.2 h 403.5 l -452.8,4587.2 -100.7,1020.3 -21,212 -40.4,409.4 h 338.4 435.3 2534.3 l 614.8,-6228.9 h 403.5 l -791.3,8017.9"
         style="fill:#27294a;fill-opacity:1;fill-rule:nonzero;stroke:none"
         id="path214" />
      <path
         d="m 15712.6,11303.1 c 0,0 44.4,0.5 84.3,30.8 32.3,24.5 61.6,68.6 61.6,148.1 h -1921.8 v -178.9 h 369 1406.9"
         style="fill:#1d1d38;fill-opacity:1;fill-rule:nonzero;stroke:none"
         id="path216" />
      <path
         d="m 13780.6,12227.2 -9.2,44.2 -1.6,7.6 -328.9,1569.4 h -1406.8 -45.2 -583.4 -821.4 v -1389.8 h -122.5 -2.1 -664.62 l 116.06,-554 88.59,-422.6 h -2.85 c 22.22,-178.9 124.02,-178.9 124.02,-178.9 h 2625.4 1190.6 v 178.9 l -156.1,745.2"
         style="fill:#2a2b54;fill-opacity:1;fill-rule:nonzero;stroke:none"
         id="path218" />
      <path
         d="m 10461.6,12458.6 h 122.5 v 4577.7 h -122.5 v -4577.7"
         style="fill:#252745;fill-opacity:1;fill-rule:nonzero;stroke:none"
         id="path220" />
      <path
         d="m 8650.94,11370.7 c 0,37.4 -25.74,67.6 -57.46,67.6 H 8182.5 7688.95 c 11.01,-65.6 38.78,-121.7 99.72,-135.2 h 804.81 c 31.72,0 57.46,30.2 57.46,67.6"
         style="fill:#252745;fill-opacity:1;fill-rule:nonzero;stroke:none"
         id="path222" />
      <path
         d="m 6303.32,12458.6 h -133.91 l -162.22,-760.3 h 133.9 l 162.23,760.3"
         style="fill:#252745;fill-opacity:1;fill-rule:nonzero;stroke:none"
         id="path224" />
      <path
         d="m 6233.91,11303.1 c -117,0 -153.25,64.4 -130.32,197.6 14.03,81.2 37.5,197.6 37.5,197.6 h -133.9 c 0,0 -15.04,-76.4 -26.84,-144.2 -20.58,-117.8 -48.36,-251 119.65,-251 h 25.51 108.4"
         style="fill:#252745;fill-opacity:1;fill-rule:nonzero;stroke:none"
         id="path226" />
      <path
         d="M 10459.5,17036.3 H 3346.91 v -4577.7 h 2794.18 v 3203.7 h 162.23 1619.45 v -3203.7 h 1872.11 664.62 2.1 v 4577.7 h -2.1"
         style="fill:#323660;fill-opacity:1;fill-rule:nonzero;stroke:none"
         id="path228" />
      <path
         d="m 7702.42,11698.3 162.23,760.3 H 6303.32 l -162.23,-760.3 c 0,0 -23.47,-116.4 -37.5,-197.6 -22.93,-133.2 13.32,-197.6 130.32,-197.6 h 608.04 812.74 133.98 c -60.94,13.5 -88.71,69.6 -99.72,135.2 -17.35,103.5 7.3,230.8 12.53,255.6 0.63,2.8 0.94,4.4 0.94,4.4"
         style="fill:#323660;fill-opacity:1;fill-rule:nonzero;stroke:none"
         id="path230" />
      <path
         d="m 7864.65,12458.6 h 58.12 v 3203.7 H 6303.32 v -3203.7 h 1427.38 133.95"
         style="fill:#252745;fill-opacity:1;fill-rule:nonzero;stroke:none"
         id="path232" />
      <path
         d="m 6303.32,15662.3 h -162.23 v -3203.7 h 162.23 v 3203.7"
         style="fill:#1c1d33;fill-opacity:1;fill-rule:nonzero;stroke:none"
         id="path234" />
    </g>
  </g>
</svg>
