<svg version="1.2" xmlns="http://www.w3.org/2000/svg" viewBox="0 0 1500 1000" width="1500" height="1000">
	<title>5508371-ai</title>
	<style>
		tspan { white-space:pre } 
		.s0 { fill: #ffffff } 
		.s1 { fill: #48c162 } 
		.s2 { fill: #d32f50 } 
		.t3 { font-size: 22px;fill: #5a5a66;font-weight: 800;font-style: italic;font-family: "Montserrat-ExtraBoldItalic", "Montserrat" } 
		.t4 { font-size: 22px;fill: #ffffff;font-weight: 800;font-style: italic;font-family: "Montserrat-ExtraBoldItalic", "Montserrat" } 
		.s5 { fill: #5a5a66 } 
		.s6 { fill: #2f2f35 } 
		.s7 { fill: #cecece } 
		.s8 { fill: #ff7e6e } 
		.s9 { fill: #ffc900 } 
		.s10 { fill: #fffffd } 
		.s11 { fill: #0f1201 } 
		.s12 { fill: #a9a7aa } 
		.s13 { opacity: .5;fill: #5a5a66 } 
		.s14 { fill: none;stroke: #5a5a66;stroke-width: 2 } 
		.s15 { opacity: .6;mix-blend-mode: multiply;fill: #5a5a66 } 
		.s16 { fill: #ce6159 } 
		.s17 { fill: #1c2f36 } 
		.s18 { opacity: .8;mix-blend-mode: overlay;fill: #ffffff } 
		.s19 { fill: none;stroke: #7b3c38;stroke-linecap: round;stroke-width: 2 } 
		.s20 { opacity: .5;mix-blend-mode: overlay;fill: #ffffff } 
		.s21 { fill: #d19f00 } 
		.s22 { opacity: .5;fill: #cd2e2b } 
		.s23 { fill: none;stroke: #ffffff;stroke-width: 1 } 
		.s24 { opacity: .3;mix-blend-mode: overlay;fill: #ffffff } 
		.s25 { fill: none;stroke: #9191a3;stroke-linecap: round;stroke-width: 2.6 } 
		.s26 { fill: none;stroke: #9191a3;stroke-linecap: round;stroke-width: 2.6;stroke-dasharray: 26,10.4 } 
		.s27 { opacity: .5;mix-blend-mode: multiply;fill: #e39533 } 
		.s28 { fill: #e39533 } 
		.s29 { fill: none;stroke: #1c2f36;stroke-width: 1.3 } 
		.s30 { fill: none;stroke: #ffffff;stroke-linecap: round;stroke-width: 2.6 } 
		.s31 { fill: #f0c75c } 
		.s32 { fill: #526175 } 
		.s33 { fill: none;stroke: #7b3c38;stroke-width: 2 } 
		.s34 { fill: none;stroke: #9191a3;stroke-linecap: round;stroke-width: 2.6;stroke-dasharray: 20.8,10.4 } 
		.s35 { fill: #cd2e2b } 
		.s36 { fill: none;stroke: #fff8f2;stroke-linecap: round;stroke-width: 2.7 } 
	</style>
	<g id="BACKGROUND">
		<path id="&lt;Path&gt;" class="s0" d="m1498.9 1000h-1498.9v-1000h1498.9z"/>
	</g>
	<g id="OBJECTS">
		<g id="&lt;Group&gt;">
			<g id="&lt;Group&gt;">
				<path id="&lt;Path&gt;" class="s1" d="m1498.9 110.3h-750v-110.3h750z"/>
				<path id="&lt;Path&gt;" class="s2" d="m748.9 110.3h-748.9v-110.3h748.9z"/>
				<text id="CORRECT POSTURE
" style="transform: matrix(2,0,0,2,879.606,71.308)" >
					<tspan x="0" y="0" class="t3">CORRECT POSTURE
</tspan>
				</text>
				<text id="INCORRECT POSTURE
" style="transform: matrix(2,0,0,2,120.086,71.308)" >
					<tspan x="0" y="0" class="t4">INCORRECT POSTURE
</tspan>
				</text>
			</g>
			<g id="&lt;Group&gt;">
				<g id="&lt;Group&gt;">
					<g id="&lt;Group&gt;">
						<path id="&lt;Path&gt;" class="s5" d="m886.4 391.4v267.4h21.1c13.4 0 24.3-10.7 24.5-24.1 0.4-27.7-0.4-74.3-8.6-114.6-12.7-61.8-8.5-118.8-37-128.7z"/>
						<path id="&lt;Path&gt;" class="s6" d="m877.1 658.8h9.3v-267.4h-9.3c-7.7 0-14 5.9-14 13.2v241c0 7.3 6.3 13.2 14 13.2z"/>
						<path id="&lt;Path&gt;" class="s6" d="m1431.6 901.7c0 6.6-132.6 11.9-296.3 11.9-163.6 0-296.3-5.3-296.3-11.9 0-6.5 132.7-11.8 296.3-11.8 163.7 0 296.3 5.3 296.3 11.8z"/>
						<path id="&lt;Path&gt;" class="s7" d="m1092.4 568.3h107.9v11.3h-107.9z"/>
						<g id="&lt;Group&gt;">
							<g id="&lt;Group&gt;">
								<path id="&lt;Path&gt;" class="s8" d="m1097.9 732.2l12 166.5 98.5 3.7c0 0-4.3-22.3-21.3-25.8-13-152.6-13-152.6-13-152.6z"/>
								<path id="&lt;Path&gt;" class="s0" d="m1109.9 898.7l98.5 3.7c0 0-4.3-22.3-21.3-25.8-1.2-14.7-2.4-28-3.4-39.9l-78.5-3.1z"/>
								<path id="&lt;Path&gt;" class="s9" d="m1109.9 898.7l98.5 3.7c0 0-4.3-22.3-21.3-25.8l-79-3.2z"/>
								<path id="&lt;Path&gt;" class="s9" d="m1155.4 875.3c0 0 0.7-12.6 19.3-11.8 10.2 0.6 12.4 13.1 12.4 13.1z"/>
								<path id="&lt;Path&gt;" class="s10" d="m1188.1 879.1c-0.1 1.7-1.5 3-3.2 3l-37.2-1.3c-1.7-0.1-3-1.5-3-3.2 0.1-1.7 1.5-3 3.2-3l37.2 1.3c1.7 0.1 3 1.5 3 3.2z"/>
								<path id="&lt;Path&gt;" class="s11" d="m1174.1 724l-76.2 8.2 1.9 26.1c44.4-1.7 68.3-13.4 75.7-17.8-1.4-16.5-1.4-16.5-1.4-16.5z"/>
								<path id="&lt;Path&gt;" class="s12" d="m1084.1 652.8l3.4 89.1c0 0 64 8.7 91.4-6.3-1.1-20.1-2.6-65.4-3.4-78.8z"/>
								<path id="&lt;Path&gt;" class="s13" d="m1177.6 711.2c-10.2 4.7-35.3 11.6-91.8 6.5l1.7 24.2c0 0 64 8.7 91.4-6.3-0.5-8.8-0.9-16.9-1.3-24.4z"/>
								<path id="&lt;Path&gt;" class="s14" d="m1116.2 656.8l5.5 87.7"/>
							</g>
							<path id="&lt;Path&gt;" class="s15" d="m1208.4 902.4c0 0-4.3-22.3-21.3-25.8q-0.5-6.3-1-12.2-0.4-5-0.8-9.7-0.3-3.5-0.6-6.8-0.2-1.8-0.3-3.6-0.4-3.9-0.7-7.6c-4.9-57.4-7.2-85.5-8.4-99.3q1.9-0.9 3.6-1.8 0 0 0 0c-1.1-20.1-2.6-65.4-3.4-78.8l-91.4-4 2.5 65q-0.4 0-0.8-0.1l1.7 24.2c0 0 4.4 0.6 11.2 1.2l11.2 155.6z"/>
						</g>
						<path id="&lt;Path&gt;" class="s5" d="m987.6 769.9h-31.4v-47.4h31.4z"/>
						<path id="&lt;Path&gt;" class="s5" d="m980.3 832.4h-16.8v-62.5h16.8z"/>
						<path id="&lt;Path&gt;" class="s8" d="m1122.4 729.3l39.2 162.3 97.8-12.7c0 0-8-21.2-25.3-21.9-37.9-148.3-37.9-148.3-37.9-148.3z"/>
						<path id="&lt;Path&gt;" class="s0" d="m1161.6 891.6l97.8-12.7c0 0-8-21.2-25.3-21.9-3.6-14.3-6.9-27.1-9.9-38.8l-77.9 9.9z"/>
						<path id="&lt;Path&gt;" class="s9" d="m1161.6 891.6l97.8-12.7c0 0-8-21.2-25.3-21.9l-78.5 9.9z"/>
						<path id="&lt;Path&gt;" class="s9" d="m1202.6 861c0 0-1.4-12.5 17.1-14.9 10.2-1 14.4 10.9 14.4 10.9z"/>
						<path id="&lt;Path&gt;" class="s10" d="m1235.5 859.4c0.2 1.6-1 3.2-2.7 3.4l-36.9 4.9c-1.7 0.2-3.2-1-3.4-2.7-0.3-1.7 0.9-3.2 2.6-3.4l36.9-4.9c1.7-0.2 3.2 1 3.5 2.7z"/>
						<path id="&lt;Path&gt;" class="s11" d="m1196.2 708.7l-73.8 20.6 6.1 25.4c43.5-9 65.1-24.5 71.8-30-4.1-16-4.1-16-4.1-16z"/>
						<path id="&lt;Path&gt;" class="s12" d="m929.8 606.2c0 0 1 19.3 0 28-1 8.6 12.3 52.5 73.5 52.5 61.2 0 97.4 0 97.4 0l13 53.9c0 0 64.5-2 89.1-21.3-8-35.5-13.3-59.2-16.9-75.1-4.2-18.8-20.5-32.4-39.8-33.2l-125.3-4.8-4.9-3.9z"/>
						<path id="&lt;Path&gt;" class="s13" d="m1197.5 695.5c-9.3 6.3-32.9 17.2-89.5 21.5l5.7 23.6c0 0 64.5-2 89.1-21.3-1.9-8.6-3.7-16.5-5.3-23.8z"/>
						<path id="&lt;Path&gt;" class="s14" d="m949 610.3c0 0 2.9 43 71.8 43h91.1c8.9 0 16.6 6.1 18.8 14.7l17.1 69.6"/>
						<path id="&lt;Path&gt;" class="s13" d="m985.5 600.2c0 0-7.4 24.3-24.3 33.9-7.4-8.6-10.8-17.5-10.8-17.5 0 0 9-5.3 9-16.4 17.2-2.4 26.1 0 26.1 0z"/>
						<path id="&lt;Path&gt;" class="s11" d="m929.8 606.2c0 0 0.6 11.7 0.4 21 44.9 3.7 85.7-24.9 85.7-24.9z"/>
						<path id="&lt;Path&gt;" class="s16" d="m1131 546.1c0 3.4-2.8 6.3-6.3 6.3h-41.9c-3.5 0-6.3-2.9-6.3-6.3 0-3.5 2.8-6.4 6.3-6.4h41.9c3.5 0 6.3 2.9 6.3 6.4z"/>
						<path id="&lt;Path&gt;" class="s9" d="m936.1 392.4c0 0-38.3 30.3-19.8 118.7 11.2 70.5 13.5 95.1 13.5 95.1 0 0 54.9 16 86.1-3.9 0.7-99.8 6.7-184.9-45.5-209.9-25.6-2.3-34.3 0-34.3 0z"/>
						<path id="&lt;Path&gt;" class="s0" d="m979.7 412.3c2.8-1.8 2.4-7.6 1-13.6-3.1-2.4-6.6-4.5-10.3-6.3-25.6-2.3-34.3 0-34.3 0 0 0-1.6 1.3-3.9 4 9.8 6.5 35.4 21.9 47.5 15.9z"/>
						<path id="&lt;Path&gt;" class="s17" d="m939.4 366.8c0 0-10.9-27.9-17.6-42.2-6.6-14.3-2.7-34.3 8.8-39.6 11.5-5.3 28.5-3.3 36.1-11.3 7.7-8 16.3-12.3 13-1.3-3.3 10.9 8.3 2.1 13.6-6.6 5.3-8.7 14.8 10.9 7.1 23.5-4.4 7-11.6 11-11.6 11l-32.7 14.9-6 27.6-4.1 24z"/>
						<path id="&lt;Path&gt;" class="s8" d="m941.9 348.1l-5.8 44.3c0 0 15.6 11.6 32.1 15 16.5 3.3 2.2-15 2.2-15l1-31.3z"/>
						<path id="&lt;Path&gt;" class="s18" d="m993.3 265.8c-5.3 8.7-16.9 17.5-13.6 6.6 3.3-11-5.3-6.7-13 1.3-1.3 1.3-2.8 2.4-4.6 3.2 2.5 12.4-4.3 28.4-4.3 28.4l18.7 0.6 12.3-5.6c0 0 7.2-4 11.6-11 7.7-12.6-1.8-32.2-7.1-23.5z"/>
						<path id="&lt;Path&gt;" class="s11" d="m944.9 351.4c0 0 9.4 17.6 25.9 26.6l0.6-16.9-27.3-12z"/>
						<path id="&lt;Path&gt;" class="s8" d="m988.8 300.3c0 0 9.2 45.8 5.1 65.7-0.4 2-2.1 3.4-4.2 3.5-29.5 1.1-37.6-10.6-47.8-21.4l-0.5-12 3.3 0.2c1.2 0.1 2.2-0.8 2.3-1.9l1.9-24.5c0 0 13.7-10.4 39.9-9.6z"/>
						<path id="&lt;Path&gt;" class="s8" d="m946 340.6c0 6-4.8 10.8-10.8 10.8-5.9 0-10.7-4.8-10.7-10.8 0-5.9 4.8-10.7 10.7-10.7 6 0 10.8 4.8 10.8 10.7z"/>
						<path id="&lt;Path&gt;" class="s19" d="m929.8 337.5l12.1 10.6"/>
						<path id="&lt;Path&gt;" class="s20" d="m989.7 369.5c2.1-0.1 3.8-1.5 4.2-3.5 4.1-19.9-5.1-65.7-5.1-65.7-14-0.4-24.4 2.3-31 5 0.3 7.4 2.5 21.7 12.2 35.3 8.1 11.3 11.6 21.9 13.1 28.9q3.1 0.1 6.6 0z"/>
						<path id="&lt;Path&gt;" class="s8" d="m993.1 326.9c0 0 5.6 13.7 7.2 19.1 0.3 1.1-0.5 2.3-1.6 2.4-4.5 0.5-7-0.3-7-0.3z"/>
						<path id="&lt;Path&gt;" class="s17" d="m984.3 330.9c0 2.2-1 4-2.3 4-1.3 0-2.3-1.8-2.3-4 0-2.2 1-4 2.3-4 1.3 0 2.3 1.8 2.3 4z"/>
						<path id="&lt;Path&gt;" class="s10" d="m994.8 358.8q0.2-2.9 0.2-6.1h-6.9c-1.1 0-1.6 1.3-0.8 2.1 1.6 1.5 4 3.3 7.5 4z"/>
						<path id="&lt;Path&gt;" class="s11" d="m1016.3 568.3l-40.2-11.3-32-64.2-24.3-36.7c0 0 14.1 121.8 21.6 129.1 6.4 6.2 58.6 1.9 74.7 0.5q0.1-8.8 0.2-17.4z"/>
						<path id="&lt;Path&gt;" class="s17" d="m980.3 318.2c-2.1 0.1-4.7 0.5-6.9 2.1-1.3 1-3.2 0.9-4.3-0.4-1.3-1.4-1.1-3.6 0.4-4.7 2.1-1.5 5.5-3.4 10.4-3.7 2-0.2 3.7 1.3 3.7 3.3v0.1c0 1.8-1.5 3.2-3.3 3.3z"/>
						<path id="&lt;Path&gt;" class="s17" d="m931.5 292.9c0.1 1.3-0.8 2.6-2.2 2.8-1.4 0.1-2.6-0.8-2.8-2.2l-1.5-11.9c-0.2-1.3 0.8-2.6 2.1-2.8 1.4-0.1 2.7 0.8 2.8 2.2z"/>
						<path id="&lt;Path&gt;" class="s17" d="m930.9 290.5c1.4 0.5 2.1 1.9 1.6 3.2-0.4 1.3-1.8 2-3.1 1.6l-11.4-3.7c-1.3-0.4-2-1.9-1.6-3.2 0.4-1.3 1.9-2 3.2-1.6z"/>
						<path id="&lt;Path&gt;" class="s8" d="m973.6 439.3l13.3 100.4h98.9c0 0 37.9 6 37.9 39.9h-157.9c-13.4 0-24.8-9.5-27.2-22.6l-20.3-108.9c-2.9-15.6 7.9-30.5 23.7-32.5l0.6-0.1c15.1-1.9 28.9 8.7 31 23.8z"/>
						<path id="&lt;Path&gt;" class="s21" d="m973.6 439.3c-2.1-15.1-15.9-25.7-31-23.8l-0.6 0.1c-15.8 2-26.6 16.9-23.7 32.5l9.1 48.8c13.8-3.8 34.2-8.3 52.7-8.3z"/>
						<path id="&lt;Path&gt;" class="s19" d="m986.9 539.7h-18.7"/>
						<path id="&lt;Path&gt;" class="s0" d="m927.4 496.9c13.8-3.8 34.3-8.3 52.7-8.3l-1.2-9c-19.5 1.3-42.4 6.5-53 9.1z"/>
						<path id="&lt;Path&gt;" class="s19" d="m1109.1 579.6c0 0-2-17.9-16.7-22.6"/>
						<path id="&lt;Path&gt;" class="s22" d="m963.9 578.7c0-14.5-11.7-26.2-26.2-26.3l0.9 4.6c2.3 12.5 12.7 21.7 25.2 22.6q0-0.5 0.1-0.9z"/>
						<path id="&lt;Path&gt;" class="s5" d="m868.9 708.7h205.6v-15.9c0-3.4-2.7-6.1-6.1-6.1h-193.4c-3.3 0-6.1 2.7-6.1 6.1z"/>
						<path id="&lt;Path&gt;" class="s6" d="m1060.8 722.5h-178.1c-7.6 0-13.8-6.1-13.8-13.7v-0.1h205.6v0.1c0 7.6-6.2 13.7-13.7 13.7z"/>
						<path id="&lt;Path&gt;" class="s12" d="m863.1 704.8v-194.7h-0.2c-9.2 0-16.7 7.6-16.7 16.8v159.8 11 10.5c0 16.2 13.1 29.4 29.3 29.4h50.2c8.2 0 14.9-6.7 14.9-14.9v-0.2h-59.8c-9.7 0-17.7-7.9-17.7-17.7z"/>
						<path id="&lt;Path&gt;" class="s6" d="m994.4 849h-45v-16.6h45z"/>
						<path id="&lt;Path&gt;" class="s5" d="m1028.6 883.6h15.3v-34.6h-15.3z"/>
						<path id="&lt;Path&gt;" class="s6" d="m1050 884.1c0 7.6-6.1 13.8-13.8 13.8-7.6 0-13.8-6.2-13.8-13.8 0-7.6 6.2-13.8 13.8-13.8 7.7 0 13.8 6.2 13.8 13.8z"/>
						<path id="&lt;Path&gt;" class="s5" d="m971.7 849h-72.2v13.2h72.2 72.2v-13.2z"/>
						<path id="&lt;Path&gt;" class="s5" d="m914.8 883.6h-15.3v-34.6h15.3z"/>
						<path id="&lt;Path&gt;" class="s6" d="m893.4 884.1c0 7.6 6.2 13.8 13.8 13.8 7.6 0 13.8-6.2 13.8-13.8 0-7.6-6.2-13.8-13.8-13.8-7.6 0-13.8 6.2-13.8 13.8z"/>
						<path id="&lt;Path&gt;" class="s6" d="m987.6 737.6h-31.4v-15.1h31.4z"/>
						<path id="&lt;Path&gt;" class="s6" d="m980.3 777.2h-16.8v-7.3h16.8z"/>
						<path id="&lt;Path&gt;" class="s6" d="m1385.1 599.1h-348.9v-19.5h348.9z"/>
						<path id="&lt;Path&gt;" class="s12" d="m1190.9 599.1l21 18.7c4.2 3.7 9.5 5.7 15 5.7h109.3c10.8 0 19.6-8.8 19.6-19.6v-4.8z"/>
						<path id="&lt;Path&gt;" class="s12" d="m1318.6 884.1h-45.3v-260.6h45.3z"/>
						<path id="&lt;Path&gt;" class="s6" d="m1318.6 644.8h-45.3v-21.3h45.3z"/>
						<path id="&lt;Path&gt;" class="s5" d="m1131 904.2h238.6c5.6 0 10.2-4.5 10.2-10.2v-0.2c0-5.6-4.6-10.2-10.2-10.2h-209.8z"/>
						<path id="&lt;Path&gt;" class="s20" d="m1234.1 857c-21.1-82.5-30.4-119.1-34.6-135.4q1.8-1.1 3.3-2.3c-8-35.5-13.3-59.2-16.9-75.1-2.1-9.4-7.2-17.4-14.1-23.3-9.9 7.3-25.6 24.7-16.2 57.7 13.3 46.5 47.2 179.5 47.2 179.5 0 0 23.3 5.5 31.8 24l24.8-3.2c0 0-8-21.2-25.3-21.9z"/>
						<path id="&lt;Path&gt;" class="s12" d="m1141 560.1h-17.3v8.2h17.3z"/>
						<path id="&lt;Path&gt;" class="s12" d="m1164.3 560.1h-17.3v8.2h17.3z"/>
						<path id="&lt;Path&gt;" class="s12" d="m1187.6 560.1h-17.3v8.2h17.3z"/>
						<path id="&lt;Path&gt;" class="s12" d="m1268 522.3h-25.3v-210.9h25.3z"/>
						<path id="&lt;Path&gt;" class="s6" d="m1248.5 522.3h-5.8v-210.9h5.8z"/>
						<path id="&lt;Path&gt;" class="s23" d="m1255.4 311.4v210.9"/>
						<path id="&lt;Path&gt;" class="s12" d="m1268 366.8l78.4 200.4c2.4 6-2 12.4-8.4 12.4h-118.1v-11.3h110.6l-62.5-160.8z"/>
						<path id="&lt;Path&gt;" class="s6" d="m1296 438.2l-28-71.4v40.7l28 71.9z"/>
						<path id="&lt;Path&gt;" class="s5" d="m846 588.5h0.2v-42.4h-0.2c-7.3 0-13.3 5.9-13.3 13.3v15.7c0 7.4 6 13.4 13.3 13.4z"/>
						<path id="&lt;Path&gt;" class="s24" d="m973.6 439.3c-2.1-15.1-15.9-25.7-31-23.8l-0.6 0.1q-1.6 0.2-3.1 0.6c4.7 3.7 21.5 19.8 18.8 57-3 43.3 0 66.5 0 66.5h29.2z"/>
					</g>
					<g id="&lt;Group&gt;">
						<g id="&lt;Group&gt;">
							<path id="&lt;Path&gt;" class="s25" d="m989.1 334.2l11.9 1.4"/>
							<path id="&lt;Path&gt;" class="s26" d="m1011.3 336.9l205.7 25.1"/>
							<path id="&lt;Path&gt;" class="s25" d="m1222.2 362.7l11.9 1.4"/>
						</g>
					</g>
					<g id="&lt;Group&gt;">
						<path id="&lt;Path&gt;" class="s21" d="m1371.8 541.4c0 0 13.2-17.6 9.1-42.5-10.5 5.7-29.2 30.1-24.2 52.3 15.1-9.8 15.1-9.8 15.1-9.8z"/>
						<path id="&lt;Path&gt;" class="s27" d="m1373.5 504.8c-2.6 25.5-17.1 44.2-17.1 44.2q-0.1-0.1-0.1-0.2c-2.5-16.9 7.7-34.5 17.2-44z"/>
						<g id="&lt;Group&gt;">
							<path id="&lt;Path&gt;" class="s21" d="m1340.7 546.4c0 0-17-13-24.5-38.3-7.6-25.4-0.6-37.9-3.8-58.9 17.3 29.2 37.4 77.6 37.3 101.2-2.7 1.4-9-4-9-4z"/>
							<path id="&lt;Path&gt;" class="s27" d="m1346.8 549c-4.9-5.7-10.6-28-13.3-57.2 8.2 19.6 14.6 39.5 15.9 53.4-1.5 2.4-2.6 3.8-2.6 3.8z"/>
						</g>
						<path id="&lt;Path&gt;" class="s9" d="m1351.3 549c0 0 21-27.2 17-60.8-4.1-33.5-28.7-59.6-27.5-86.9-11.1 64.9 1 136.9 10.5 147.7z"/>
						<path id="&lt;Path&gt;" class="s28" d="m1352.6 544.2c0 0-11.8-67.8-8.9-91.6 2.7 27.4 12.4 89.3 12.4 89.3z"/>
						<path id="&lt;Path&gt;" class="s27" d="m1371.8 541.4c0 0 0 0-15.1 9.8q-0.3-1.2-0.4-2.4-0.3-1.5-0.3-3-0.1-0.2-0.1-0.3 0-1.5 0-3.1 0-0.1 0-0.3l-0.2 0.1c-2.5 4.3-4.4 6.8-4.4 6.8q-0.9-1-1.8-2.7 0.2 2.2 0.2 4.1c-2.7 1.4-9-4-9-4 0 0-7.9-6.1-15.4-18.1 14.6 6.7 39.7 6.1 50.8 5.5-2.3 4.8-4.3 7.6-4.3 7.6z"/>
						<path id="&lt;Path&gt;" class="s7" d="m1354.2 537.7h27.2l-10 37.2h-17.2-17.2l-10-37.2z"/>
						<path id="&lt;Path&gt;" class="s12" d="m1337 579.6h34.4v-4.7h-34.4z"/>
						<path id="&lt;Path&gt;" class="s6" d="m1359.9 579.6v-4.7l6.2-37.2h15.3l-10 37.2v4.7z"/>
						<path id="&lt;Path&gt;" class="s29" d="m1371.4 574.9h-34.4"/>
					</g>
				</g>
				<g id="&lt;Group&gt;">
					<g id="&lt;Group&gt;">
						<path id="&lt;Path&gt;" class="s1" d="m954 384.5c0 8.4-6.8 15.1-15.1 15.1-8.3 0-15-6.7-15-15.1 0-8.3 6.7-15 15-15 8.3 0 15.1 6.7 15.1 15z"/>
						<path id="&lt;Path&gt;" class="s30" d="m930.5 384.5l6.8 7.9 9.5-16.9"/>
					</g>
					<g id="&lt;Group&gt;">
						<path id="&lt;Path&gt;" class="s1" d="m922.2 494.4c0 8.3-6.7 15.1-15 15.1-8.3 0-15.1-6.8-15.1-15.1 0-8.3 6.8-15 15.1-15 8.3 0 15 6.7 15 15z"/>
						<path id="&lt;Path&gt;" class="s30" d="m898.8 494.4l6.8 7.9 9.5-16.9"/>
					</g>
					<g id="&lt;Group&gt;">
						<path id="&lt;Path&gt;" class="s1" d="m964.4 574c0 8.3-6.7 15-15 15-8.3 0-15.1-6.7-15.1-15 0-8.3 6.8-15.1 15.1-15.1 8.3 0 15 6.8 15 15.1z"/>
						<path id="&lt;Path&gt;" class="s30" d="m941 574l6.8 7.9 9.5-16.9"/>
					</g>
					<g id="&lt;Group&gt;">
						<path id="&lt;Path&gt;" class="s1" d="m1186.3 627.5c0 8.3-6.7 15-15 15-8.4 0-15.1-6.7-15.1-15 0-8.3 6.7-15.1 15.1-15.1 8.3 0 15 6.8 15 15.1z"/>
						<path id="&lt;Path&gt;" class="s30" d="m1162.9 627.5l6.8 7.9 9.5-16.9"/>
					</g>
					<g id="&lt;Group&gt;">
						<path id="&lt;Path&gt;" class="s1" d="m1136.7 348.1c0 8.3-6.7 15.1-15 15.1-8.4 0-15.1-6.8-15.1-15.1 0-8.3 6.7-15 15.1-15 8.3 0 15 6.7 15 15z"/>
						<path id="&lt;Path&gt;" class="s30" d="m1113.3 348.1l6.8 7.9 9.5-16.9"/>
					</g>
				</g>
				<g id="&lt;Group&gt;">
					<path id="&lt;Path&gt;" class="s5" d="m1309 183.2l14.8 3.4-18.6 80.1-14.7-3.4z"/>
					<path id="&lt;Path&gt;" class="s0" d="m1303.9 205.4l14.7 3.4-2.8 12.1-14.7-3.4z"/>
					<path id="&lt;Path&gt;" class="s12" d="m1164.9 220.7h-13.3v60.6h13.3z"/>
					<path id="&lt;Path&gt;" class="s12" d="m1394.3 220.7h-13.3v60.6h13.3z"/>
					<path id="&lt;Path&gt;" class="s12" d="m1395 281.3h-243.4v-15.2h243.4z"/>
					<path id="&lt;Path&gt;" class="s9" d="m1354.9 183.9h15.2v82.2h-15.2z"/>
					<path id="&lt;Path&gt;" class="s7" d="m1324.7 183.9h15.1v82.2h-15.1z"/>
					<g id="&lt;Group&gt;">
						<path id="&lt;Path&gt;" class="s7" d="m1274.6 251.4v15.1h-82.2v-15.1z"/>
					</g>
					<g id="&lt;Group&gt;">
						<path id="&lt;Path&gt;" class="s5" d="m1283.8 221.2v15.1h-82.2v-15.1z"/>
					</g>
					<g id="&lt;Group&gt;">
						<path id="&lt;Path&gt;" class="s31" d="m1270.2 236.3v15.1h-82.2v-15.1z"/>
						<path id="&lt;Path&gt;" class="s32" d="m1247.4 236.3v15.1h-12.4v-15.1z"/>
					</g>
					<path id="&lt;Path&gt;" class="s5" d="m1339.8 183.9h15.1v82.2h-15.1z"/>
					<path id="&lt;Path&gt;" class="s0" d="m1339.8 206.6h15.1v12.5h-15.1z"/>
				</g>
			</g>
			<g id="&lt;Group&gt;">
				<g id="&lt;Group&gt;">
					<path id="&lt;Path&gt;" class="s5" d="m189.4 391.4v267.4h21.1c13.4 0 24.3-10.7 24.5-24.1 0.5-27.7-0.4-74.3-8.6-114.6-12.7-61.8-8.5-118.8-37-128.7z"/>
					<path id="&lt;Path&gt;" class="s6" d="m180.1 658.8h9.3v-267.4h-9.3c-7.7 0-14 5.9-14 13.2v241c0 7.3 6.3 13.2 14 13.2z"/>
					<path id="&lt;Path&gt;" class="s6" d="m734.7 901.7c0 6.6-132.7 11.9-296.4 11.9-163.6 0-296.3-5.3-296.3-11.9 0-6.5 132.7-11.8 296.3-11.8 163.7 0 296.4 5.3 296.4 11.8z"/>
					<path id="&lt;Path&gt;" class="s7" d="m395.4 568.3h107.9v11.3h-107.9z"/>
					<g id="&lt;Group&gt;">
						<g id="&lt;Group&gt;">
							<path id="&lt;Path&gt;" class="s8" d="m400.9 732.2l12 166.5 98.6 3.7c0 0-4.4-22.3-21.4-25.8-12.9-152.6-12.9-152.6-12.9-152.6z"/>
							<path id="&lt;Path&gt;" class="s0" d="m412.9 898.7l98.6 3.7c0 0-4.4-22.3-21.4-25.8-1.2-14.7-2.3-28-3.4-39.9l-78.4-3.1z"/>
							<path id="&lt;Path&gt;" class="s9" d="m412.9 898.7l98.6 3.7c0 0-4.4-22.3-21.4-25.8l-79-3.2z"/>
							<path id="&lt;Path&gt;" class="s9" d="m458.4 875.3c0 0 0.7-12.6 19.3-11.8 10.3 0.6 12.4 13.1 12.4 13.1z"/>
							<path id="&lt;Path&gt;" class="s10" d="m491.1 879.1c-0.1 1.7-1.5 3-3.2 3l-37.2-1.3c-1.7-0.1-3-1.5-2.9-3.2 0-1.7 1.4-3 3.1-3l37.2 1.3c1.7 0.1 3.1 1.5 3 3.2z"/>
							<path id="&lt;Path&gt;" class="s11" d="m477.2 724l-76.3 8.2 1.9 26.1c44.4-1.7 68.3-13.4 75.8-17.8-1.4-16.5-1.4-16.5-1.4-16.5z"/>
							<path id="&lt;Path&gt;" class="s12" d="m387.1 652.8l3.5 89.1c0 0 63.9 8.7 91.4-6.3-1.2-20.1-2.7-65.4-3.4-78.8z"/>
							<path id="&lt;Path&gt;" class="s13" d="m480.6 711.2c-10.2 4.7-35.3 11.6-91.8 6.5l1.8 24.2c0 0 63.9 8.7 91.4-6.3-0.5-8.8-1-16.9-1.4-24.4z"/>
							<path id="&lt;Path&gt;" class="s14" d="m419.2 656.8l5.5 87.7"/>
						</g>
						<path id="&lt;Path&gt;" class="s15" d="m511.5 902.4c0 0-4.4-22.3-21.4-25.8q-0.5-6.3-1-12.2-0.4-5-0.8-9.7-0.3-3.5-0.6-6.8-0.2-1.8-0.3-3.6-0.3-3.9-0.7-7.6c-4.8-57.4-7.2-85.5-8.4-99.3q1.9-0.9 3.7-1.8 0 0 0 0c-1.2-20.1-2.7-65.4-3.4-78.8l-91.5-4 2.5 65q-0.4 0-0.8-0.1l1.8 24.2c0 0 4.3 0.6 11.1 1.2l11.2 155.6z"/>
					</g>
					<path id="&lt;Path&gt;" class="s5" d="m290.6 769.9h-31.4v-47.4h31.4z"/>
					<path id="&lt;Path&gt;" class="s5" d="m283.3 832.4h-16.8v-62.5h16.8z"/>
					<path id="&lt;Path&gt;" class="s5" d="m172 708.7h205.5v-15.9c0-3.4-2.7-6.1-6.1-6.1h-193.4c-3.3 0-6 2.7-6 6.1z"/>
					<path id="&lt;Path&gt;" class="s6" d="m363.8 722.5h-178.1c-7.6 0-13.7-6.1-13.7-13.7v-0.1h205.5v0.1c0 7.6-6.1 13.7-13.7 13.7z"/>
					<path id="&lt;Path&gt;" class="s12" d="m166.1 704.8v-194.7h-0.1c-9.3 0-16.8 7.6-16.8 16.8v159.8 11 10.5c0 16.2 13.1 29.4 29.3 29.4h50.2c8.3 0 14.9-6.7 14.9-14.9v-0.2h-59.7c-9.8 0-17.8-7.9-17.8-17.7z"/>
					<path id="&lt;Path&gt;" class="s6" d="m297.4 849h-45v-16.6h45z"/>
					<path id="&lt;Path&gt;" class="s5" d="m331.6 883.6h15.3v-34.6h-15.3z"/>
					<path id="&lt;Path&gt;" class="s6" d="m353.1 884.1c0 7.6-6.2 13.8-13.9 13.8-7.6 0-13.8-6.2-13.8-13.8 0-7.6 6.2-13.8 13.8-13.8 7.7 0 13.9 6.2 13.9 13.8z"/>
					<path id="&lt;Path&gt;" class="s5" d="m274.7 849h-72.1v13.2h72.1 72.2v-13.2z"/>
					<path id="&lt;Path&gt;" class="s5" d="m217.9 883.6h-15.3v-34.6h15.3z"/>
					<path id="&lt;Path&gt;" class="s6" d="m196.4 884.1c0 7.6 6.2 13.8 13.8 13.8 7.6 0 13.8-6.2 13.8-13.8 0-7.6-6.2-13.8-13.8-13.8-7.6 0-13.8 6.2-13.8 13.8z"/>
					<path id="&lt;Path&gt;" class="s6" d="m290.6 737.6h-31.4v-15.1h31.4z"/>
					<path id="&lt;Path&gt;" class="s6" d="m283.3 777.2h-16.8v-7.3h16.8z"/>
					<path id="&lt;Path&gt;" class="s6" d="m688.1 599.1h-348.9v-19.5h348.9z"/>
					<path id="&lt;Path&gt;" class="s12" d="m493.9 599.1l21.1 18.7c4.1 3.7 9.4 5.7 14.9 5.7h109.3c10.8 0 19.6-8.8 19.6-19.6v-4.8z"/>
					<path id="&lt;Path&gt;" class="s12" d="m621.6 884.1h-45.2v-260.6h45.2z"/>
					<path id="&lt;Path&gt;" class="s6" d="m621.6 644.8h-45.2v-21.3h45.2z"/>
					<path id="&lt;Path&gt;" class="s5" d="m434 904.2h238.6c5.6 0 10.2-4.5 10.2-10.2v-0.2c0-5.6-4.6-10.2-10.2-10.2h-209.8z"/>
					<path id="&lt;Path&gt;" class="s12" d="m444 560.1h-17.3v8.2h17.3z"/>
					<path id="&lt;Path&gt;" class="s12" d="m467.3 560.1h-17.3v8.2h17.3z"/>
					<path id="&lt;Path&gt;" class="s12" d="m490.6 560.1h-17.3v8.2h17.3z"/>
					<path id="&lt;Path&gt;" class="s12" d="m571 522.3h-25.2v-210.9h25.2z"/>
					<path id="&lt;Path&gt;" class="s6" d="m551.5 522.3h-5.7v-210.9h5.7z"/>
					<path id="&lt;Path&gt;" class="s23" d="m558.4 311.4v210.9"/>
					<path id="&lt;Path&gt;" class="s12" d="m571 366.8l78.4 200.4c2.4 6-2 12.4-8.4 12.4h-118v-11.3h110.5l-62.5-160.8z"/>
					<path id="&lt;Path&gt;" class="s6" d="m599 438.2l-28-71.4v40.7l28 71.9z"/>
					<path id="&lt;Path&gt;" class="s5" d="m149 588.5h0.2v-42.4h-0.2c-7.3 0-13.3 5.9-13.3 13.3v15.7c0 7.4 6 13.4 13.3 13.4z"/>
					<g id="&lt;Group&gt;">
						<path id="&lt;Path&gt;" class="s8" d="m382.7 710.5l-77.6 147.9 81.9 55c0 0 8-21.3-4.6-33.2 69.4-136.5 69.4-136.5 69.4-136.5z"/>
						<path id="&lt;Path&gt;" class="s0" d="m305.1 858.4l81.9 55c0 0 8-21.3-4.6-33.2 6.7-13.1 12.7-25 18.2-35.7l-65.1-43.9z"/>
						<path id="&lt;Path&gt;" class="s9" d="m305.1 858.4l81.9 55c0 0 8-21.3-4.6-33.2l-65.5-44.3z"/>
						<path id="&lt;Path&gt;" class="s9" d="m356.1 862.4c0 0 7.3-10.2 22.7 0.2 8.3 5.9 3.6 17.6 3.6 17.6z"/>
						<path id="&lt;Path&gt;" class="s10" d="m381.9 882.9c-0.9 1.4-2.8 1.8-4.3 0.8l-30.9-20.6c-1.4-1-1.8-2.9-0.8-4.3 0.9-1.4 2.8-1.8 4.2-0.9l31 20.7c1.4 1 1.8 2.9 0.8 4.3z"/>
						<path id="&lt;Path&gt;" class="s11" d="m451.8 743.7l-69.1-33.2-18.8 35.9c38.6 21.9 71.8 11.9 80.4 12.1 7.5-14.7 7.5-14.8 7.5-14.8z"/>
					</g>
					<path id="&lt;Path&gt;" class="s12" d="m232.8 606.2c0 0-8.7 80.5 78.8 80.5 92.2 0 77.2 0 77.2 0l-22.3 41.1c0 0 34.7 29 83.5 26 12.2-23.9 25.1-49.2 36-70.3 12.5-24.3-2.6-53.6-29.5-57.6l-132.7-19.7-12.2-7.1z"/>
					<path id="&lt;Path&gt;" class="s14" d="m259.2 607.4c0 0-6.6 41.2 38.2 45.4 32.6 3.1 90.2 7.2 119.1 9.1 8.1 0.6 12.9 9.4 8.9 16.6l-35.4 63.5"/>
					<path id="&lt;Path&gt;" class="s17" d="m327.3 373.4c0 0-3.1-29.8-5.6-45.4-2.6-15.6 6.6-33.7 19.1-35.8 12.5-2 28.3 4.5 37.8-1.1 9.5-5.7 19-7.5 12.8 2.2-6.1 9.6 7.5 4.2 15-2.7 7.4-7 11.2 14.5 0.4 24.6-6.1 5.5-14.1 7.5-14.1 7.5l-35.5 5.5-13.2 25-10.4 22z"/>
					<path id="&lt;Path&gt;" class="s11" d="m232.8 606.2c0 0 0.6 11.7 0.4 21 44.9 3.7 85.8-24.9 85.8-24.9z"/>
					<path id="&lt;Path&gt;" class="s18" d="m406.4 290.6c-7.5 6.9-21.1 12.3-15 2.7 6.2-9.7-3.3-7.9-12.8-2.2-2 1.1-4.2 1.7-6.6 2.1 3.5 13.8-10.5 25.9-10.5 25.9l23.1 4.8 8.1-1.2c0 0 8-2 14.1-7.5 10.8-10.1 7-31.6-0.4-24.6z"/>
					<path id="&lt;Path&gt;" class="s16" d="m434 546.1c0 3.4-2.8 6.3-6.3 6.3h-41.9c-3.5 0-6.3-2.9-6.3-6.3 0-3.5 2.8-6.4 6.3-6.4h41.9c3.5 0 6.3 2.9 6.3 6.4z"/>
					<path id="&lt;Path&gt;" class="s9" d="m308.9 382.2c0 0-46.2 15.8-58.2 105.3-12.9 70.2-17.9 118.7-17.9 118.7 0 0 50 4.5 86.2-3.9 33.8-93.9 63.1-167.8 22.2-208.7-23.3-10.7-32.3-11.4-32.3-11.4z"/>
					<path id="&lt;Path&gt;" class="s11" d="m252.4 577.3l71.6 10.9q2.6-7 5-13.9l-17.4-28.2 7.4-96.9z"/>
					<path id="&lt;Path&gt;" class="s0" d="m341.2 426.2c3.3-0.8 7-17.1 7.7-23.2-2.2-3.3-4.7-6.5-7.7-9.4-23.3-10.7-32.3-11.4-32.3-11.4 0 0-1.9 0.7-5 2.4 7.1 9.4 23.9 43.3 37.3 41.6z"/>
					<g id="&lt;Group&gt;">
						<path id="&lt;Path&gt;" class="s8" d="m344.4 351l-30.1 33c0 0 6.2 18.5 17.8 30.6 11.6 12.2 10.3-11 10.3-11l18.7-25.1z"/>
						<path id="&lt;Path&gt;" class="s11" d="m345 355.4c0 0-2.4 19.8 6.1 36.6l10-13.5-15.4-25.4z"/>
					</g>
					<path id="&lt;Path&gt;" class="s8" d="m392.7 322.7c0 0-3.4 46.5-12.8 64.6-0.9 1.8-2.9 2.7-4.9 2.2-28.8-6.8-33.4-20.3-40.4-33.4l2.9-11.8 3.1 1.2c1.1 0.4 2.3-0.2 2.7-1.3l8.4-23.1c0 0 16-6.3 41 1.6z"/>
					<path id="&lt;Path&gt;" class="s8" d="m340.6 350c-1.6 5.7-7.5 9-13.2 7.4-5.7-1.6-9.1-7.5-7.5-13.2 1.6-5.7 7.5-9.1 13.3-7.5 5.7 1.6 9 7.5 7.4 13.3z"/>
					<path id="&lt;Path&gt;" class="s19" d="m325.9 342.6l8.7 13.5"/>
					<path id="&lt;Path&gt;" class="s20" d="m375 389.5c2 0.5 4-0.4 4.9-2.2 9.4-18.1 12.8-64.6 12.8-64.6-13.3-4.2-24.1-4.4-31.2-3.6-1.6 7.2-3.4 21.5 2.3 37.3 4.7 13 5.2 24.2 4.8 31.4q3 0.9 6.4 1.7z"/>
					<path id="&lt;Path&gt;" class="s8" d="m389.7 349.4c0 0 1.8 14.7 1.8 20.4 0 1.1-1.1 2-2.2 1.8-4.5-0.7-6.7-2.1-6.7-2.1z"/>
					<path id="&lt;Path&gt;" class="s17" d="m380.2 350.9c-0.6 2.1-2.1 3.6-3.3 3.3-1.3-0.4-1.8-2.4-1.2-4.5 0.6-2.2 2.1-3.6 3.3-3.3 1.3 0.4 1.8 2.4 1.2 4.5z"/>
					<path id="&lt;Path&gt;" class="s17" d="m379.7 337.6c-2-0.5-4.7-0.8-7.2 0.1-1.5 0.6-3.3 0-4-1.4l-0.1-0.1c-0.8-1.7 0-3.7 1.7-4.4 2.4-0.9 6.3-1.8 11.1-0.8 1.9 0.4 3.1 2.3 2.6 4.2l-0.1 0.1c-0.5 1.7-2.2 2.7-4 2.3z"/>
					<path id="&lt;Path&gt;" class="s33" d="m384.4 375.2h-7.2"/>
					<path id="&lt;Path&gt;" class="s8" d="m300.8 539.7l19.6-96.8c2-10-2.3-20.3-11-25.7l-0.4-0.3c-14.5-9-33.5-1-37.1 15.7l-26.7 126c-2.3 10.9 5.9 21 17 21h164.5c0 0-4.6-39.9-37.9-39.9-33.3 0-88 0-88 0z"/>
					<path id="&lt;Path&gt;" class="s19" d="m415.1 579.6c0 0-2-17.9-16.7-22.6"/>
					<path id="&lt;Path&gt;" class="s22" d="m272.9 577.6c0-15-11.1-27.3-25.6-29.1l-2.1 10.1c-2.3 10.9 5.9 21 17 21h10.6c0.1-0.6 0.1-1.3 0.1-2z"/>
					<path id="&lt;Path&gt;" class="s21" d="m309.8 495.2l10.6-52.3c2-10-2.3-20.3-11-25.7l-0.4-0.3c-14.5-9-33.5-1-37.1 15.7l-13 61.4c10.3-0.8 28.2-1.4 50.9 1.2z"/>
					<path id="&lt;Path&gt;" class="s0" d="m311.6 486.4c-20.6-3.3-38.7-2.4-50.9-0.9l-1.8 8.5c10.3-0.8 28.2-1.4 50.9 1.2z"/>
					<path id="&lt;Path&gt;" class="s13" d="m450 753.8c4-7.8 8-15.7 12-23.6-45.1-1.8-72.8-19-82.5-26.3l-13 23.9c0 0 34.7 29 83.5 26z"/>
					<path id="&lt;Path&gt;" class="s20" d="m387.8 869.7q6.9-13.5 12.8-25.2c24.2-47.7 37-72.8 43.7-86q0.8-1.7 1.5-3 0.4-0.8 0.8-1.6 1.7 0 3.4-0.1c12.2-23.9 25.1-49.2 36-70.3 6.6-12.8 5.5-27-0.9-38.2-8.9 2.5-26.9 13.4-50.6 58.6-34.1 65.2-76.8 159.6-76.8 159.6 0 0 3.7 13.8-4.5 27.2l33.8 22.7c0 0 1.1-3 1.8-7.4q0.1-0.5 0.2-1.1c0.6-3.8 0.8-8.5-0.2-13.1-0.9-4.1-2.8-8.2-6.4-11.6q1.3-2.5 2.6-5 1.4-2.7 2.8-5.5z"/>
					<g id="&lt;Group&gt;">
						<g id="&lt;Group&gt;">
							<path id="&lt;Path&gt;" class="s25" d="m383.9 354.2l11.8 2.3"/>
							<path id="&lt;Path&gt;" class="s34" d="m404.6 358.3l117.5 23.1"/>
							<path id="&lt;Path&gt;" class="s25" d="m526.6 382.2l11.8 2.3"/>
						</g>
					</g>
					<g id="&lt;Group&gt;">
						<path id="&lt;Path&gt;" class="s21" d="m674.9 541.4c0 0 13.3-17.6 9.2-42.5-10.6 5.7-29.2 30.1-24.3 52.3 15.1-9.8 15.1-9.8 15.1-9.8z"/>
						<path id="&lt;Path&gt;" class="s27" d="m676.6 504.8c-2.6 25.5-17.1 44.2-17.1 44.2q0-0.1-0.1-0.2c-2.5-16.9 7.8-34.5 17.2-44z"/>
						<g id="&lt;Group&gt;">
							<path id="&lt;Path&gt;" class="s21" d="m643.9 546.4c0 0-17-13-24.6-38.3-7.5-25.4-0.5-37.9-3.8-58.9 17.3 29.2 37.4 77.6 37.3 101.2-2.7 1.4-8.9-4-8.9-4z"/>
							<path id="&lt;Path&gt;" class="s27" d="m650 549c-5-5.7-10.7-28-13.4-57.2 8.2 19.6 14.6 39.5 16 53.4-1.6 2.4-2.6 3.8-2.6 3.8z"/>
						</g>
						<path id="&lt;Path&gt;" class="s9" d="m654.4 549c0 0 21.1-27.2 17-60.8-4-33.5-28.7-59.6-27.5-86.9-11.1 64.9 1 136.9 10.5 147.7z"/>
						<path id="&lt;Path&gt;" class="s28" d="m655.7 544.2c0 0-11.7-67.8-8.8-91.6 2.6 27.4 12.4 89.3 12.4 89.3z"/>
						<path id="&lt;Path&gt;" class="s27" d="m674.9 541.4c0 0 0 0-15.1 9.8q-0.2-1.2-0.4-2.4-0.2-1.5-0.3-3 0-0.2 0-0.3-0.1-1.5-0.1-3.1 0-0.1 0-0.3l-0.2 0.1c-2.5 4.3-4.4 6.8-4.4 6.8q-0.9-1-1.7-2.7 0.1 2.2 0.1 4.1c-2.7 1.4-8.9-4-8.9-4 0 0-8-6.1-15.4-18.1 14.5 6.7 39.6 6.1 50.7 5.5-2.2 4.8-4.3 7.6-4.3 7.6z"/>
						<path id="&lt;Path&gt;" class="s7" d="m657.4 537.7h27.1l-9.9 37.2h-17.2-17.2l-10-37.2z"/>
						<path id="&lt;Path&gt;" class="s12" d="m640.2 579.6h34.4v-4.7h-34.4z"/>
						<path id="&lt;Path&gt;" class="s6" d="m663.1 579.6v-4.7l6.1-37.2h15.3l-9.9 37.2v4.7z"/>
						<path id="&lt;Path&gt;" class="s29" d="m674.6 574.9h-34.4"/>
					</g>
					<path id="&lt;Path&gt;" class="s24" d="m300.8 539.7l19.6-96.8c2-10-2.3-20.3-11-25.7l-0.4-0.3c-4.5-2.8-9.4-3.9-14.1-3.7 2 16 4.8 50.1-5 74-13.2 32.2-15 52.5-15 52.5z"/>
					<path id="&lt;Path&gt;" class="s19" d="m300.8 539.7h-25.9"/>
					<path id="&lt;Path&gt;" class="s17" d="m339.5 300.1c-0.2 1.3-1.5 2.3-2.9 2.1-1.3-0.2-2.3-1.5-2.1-2.9l1.8-11.8c0.2-1.4 1.4-2.3 2.8-2.1 1.4 0.2 2.3 1.5 2.1 2.8z"/>
				</g>
				<g id="&lt;Group&gt;">
					<path id="&lt;Path&gt;" class="s5" d="m606.7 183.2l14.8 3.4-18.6 80.1-14.7-3.4z"/>
					<path id="&lt;Path&gt;" class="s0" d="m601.6 205.4l14.7 3.4-2.8 12.1-14.7-3.4z"/>
					<path id="&lt;Path&gt;" class="s12" d="m462.6 220.7h-13.3v60.6h13.3z"/>
					<path id="&lt;Path&gt;" class="s12" d="m692 220.7h-13.3v60.6h13.3z"/>
					<path id="&lt;Path&gt;" class="s12" d="m692.7 281.3h-243.4v-15.2h243.4z"/>
					<path id="&lt;Path&gt;" class="s9" d="m652.6 183.9h15.2v82.2h-15.2z"/>
					<path id="&lt;Path&gt;" class="s7" d="m622.4 183.9h15.1v82.2h-15.1z"/>
					<g id="&lt;Group&gt;">
						<path id="&lt;Path&gt;" class="s7" d="m572.3 251.4v15.1h-82.2v-15.1z"/>
					</g>
					<g id="&lt;Group&gt;">
						<path id="&lt;Path&gt;" class="s5" d="m581.5 221.2v15.1h-82.2v-15.1z"/>
					</g>
					<g id="&lt;Group&gt;">
						<path id="&lt;Path&gt;" class="s31" d="m567.9 236.3v15.1h-82.2v-15.1z"/>
						<path id="&lt;Path&gt;" class="s32" d="m545.1 236.3v15.1h-12.4v-15.1z"/>
					</g>
					<path id="&lt;Path&gt;" class="s5" d="m637.5 183.9h15.1v82.2h-15.1z"/>
					<path id="&lt;Path&gt;" class="s0" d="m637.5 206.6h15.1v12.5h-15.1z"/>
				</g>
			</g>
			<path id="&lt;Path&gt;" class="s17" d="m339.6 297.7c1.2 0.7 1.5 2.3 0.7 3.4-0.8 1.2-2.3 1.5-3.5 0.7l-9.9-6.6c-1.2-0.8-1.5-2.3-0.7-3.5 0.7-1.1 2.3-1.4 3.4-0.7z"/>
			<g id="&lt;Group&gt;">
				<g id="&lt;Group&gt;">
					<path id="&lt;Path&gt;" class="s35" d="m323.6 379.2c0 8.3-6.7 15-15 15-8.3 0-15.1-6.7-15.1-15 0-8.3 6.8-15.1 15.1-15.1 8.3 0 15 6.8 15 15.1z"/>
					<path id="&lt;Path&gt;" class="s36" d="m300.7 371.3l15.7 15.7"/>
					<path id="&lt;Path&gt;" class="s36" d="m300.7 387l15.7-15.7"/>
				</g>
				<g id="&lt;Group&gt;">
					<path id="&lt;Path&gt;" class="s35" d="m267.5 567.3c0 8.3-6.8 15-15.1 15-8.3 0-15-6.7-15-15 0-8.4 6.7-15.1 15-15.1 8.3 0 15.1 6.7 15.1 15.1z"/>
					<path id="&lt;Path&gt;" class="s36" d="m260.2 575.1l-15.6-15.7"/>
					<path id="&lt;Path&gt;" class="s36" d="m244.6 575.1l15.6-15.7"/>
				</g>
				<g id="&lt;Group&gt;">
					<path id="&lt;Path&gt;" class="s35" d="m484.5 634.2c0 8.3-6.8 15-15.1 15-8.3 0-15-6.7-15-15 0-8.4 6.7-15.1 15-15.1 8.3 0 15.1 6.7 15.1 15.1z"/>
					<path id="&lt;Path&gt;" class="s36" d="m461.6 626.3l15.7 15.7"/>
					<path id="&lt;Path&gt;" class="s36" d="m461.6 642l15.7-15.7"/>
				</g>
				<g id="&lt;Group&gt;">
					<path id="&lt;Path&gt;" class="s35" d="m259.8 479.4c0 8.3-6.7 15-15 15-8.3 0-15.1-6.7-15.1-15 0-8.3 6.8-15.1 15.1-15.1 8.3 0 15 6.8 15 15.1z"/>
					<path id="&lt;Path&gt;" class="s36" d="m237 471.5l15.6 15.7"/>
					<path id="&lt;Path&gt;" class="s36" d="m237 487.2l15.6-15.7"/>
				</g>
				<g id="&lt;Group&gt;">
					<path id="&lt;Path&gt;" class="s35" d="m482.4 369.6c0 8.3-6.7 15-15.1 15-8.3 0-15-6.7-15-15 0-8.3 6.7-15.1 15-15.1 8.4 0 15.1 6.8 15.1 15.1z"/>
					<path id="&lt;Path&gt;" class="s36" d="m459.5 361.7l15.7 15.7"/>
					<path id="&lt;Path&gt;" class="s36" d="m459.5 377.4l15.7-15.7"/>
				</g>
			</g>
		</g>
	</g>
</svg>